<svg xmlns="http://www.w3.org/2000/svg" width="230" height="64" viewBox="0 0 230 64">
  <g fill="none" fill-rule="evenodd" transform="translate(-.5)">
    <polygon fill="#FA705A" points="169.785 .648 210.108 .648 230.162 19.426 189.948 62.917 150.29 19.336"/>
    <polygon fill="#FA705A" points="169.785 .648 210.108 .648 230.162 19.426 189.948 62.917 150.29 19.336"/>
    <path fill="#565354" d="M13.0485816,62.3735427 L0.19773445,62.3735427 L0.19773445,26.3911707 L13.0485816,26.3911707 L13.0485816,62.3735427 Z M13.0485816,17.4685662 L0.19773445,17.4685662 L0.19773445,0.14372044 L13.0485816,0.14372044 L13.0485816,17.4685662 Z M58.2743276,36.5650602 L37.3746853,36.5650602 L37.3746853,62.7797012 L24.5846603,62.7797012 L24.5846603,0.14372044 L70.2765612,0.14372044 L70.2765612,62.7797012 L58.2743276,62.7797012 L58.2743276,36.5650602 Z M35.447244,10.8872691 L35.447244,26.3911707 L56.6412009,26.3911707 L56.6412009,10.8872691 L35.447244,10.8872691 Z M94.6035718,62.8580942 L81.8135468,62.8580942 L81.8135468,0.222113407 L94.6035718,0.222113407 L115.503214,35.3349021 L115.503214,0.222113407 L127.505448,0.222113407 L127.505448,62.8580942 L115.503214,62.8580942 L94.6035718,26.6984646 L94.6035718,62.8580942 Z" transform="translate(.44 .316)"/>
  </g>
</svg>
