<svg xmlns="http://www.w3.org/2000/svg" xmlns:xlink="http://www.w3.org/1999/xlink" width="298" height="291" viewBox="0 0 298 291">
  <defs>
    <rect id="copporn_logo-a" width="90" height="90" rx="35.156"/>
    <filter id="copporn_logo-b" width="104.4%" height="104.4%" x="-2.2%" y="-2.2%" filterUnits="objectBoundingBox">
      <feGaussianBlur in="SourceAlpha" result="shadowBlurInner1" stdDeviation="1.5"/>
      <feOffset dy="1" in="shadowBlurInner1" result="shadowOffsetInner1"/>
      <feComposite in="shadowOffsetInner1" in2="SourceAlpha" k2="-1" k3="1" operator="arithmetic" result="shadowInnerInner1"/>
      <feColorMatrix in="shadowInnerInner1" values="0 0 0 0 0   0 0 0 0 0   0 0 0 0 0  0 0 0 0.5 0"/>
    </filter>
    <rect id="copporn_logo-d" width="90" height="34.805"/>
    <polygon id="copporn_logo-f" points="4.741 .091 .006 .091 .006 10.413 9.476 10.413 9.476 .091"/>
  </defs>
  <g fill="none" fill-rule="evenodd">
    <rect width="599.709" height="842" x="-1" fill="#F6F3EA"/>
    <g transform="translate(-194 -202)">
      <circle cx="236.968" cy="240.632" r="236.642" fill="#A5A39E"/>
      <circle cx="220.663" cy="218.327" r="217.337" fill="#7D7B78"/>
      <circle cx="126.117" cy="125.813" r="125.336" fill="#565354" transform="translate(127.86 128.948)"/>
      <g transform="translate(230 233.36)">
        <mask id="copporn_logo-c" fill="#fff">
          <use xlink:href="#copporn_logo-a"/>
        </mask>
        <use fill="#E6C08F" xlink:href="#copporn_logo-a"/>
        <use fill="#000" filter="url(#copporn_logo-b)" xlink:href="#copporn_logo-a"/>
        <g mask="url(#copporn_logo-c)">
          <g transform="translate(0 55.195)">
            <mask id="copporn_logo-e" fill="#fff">
              <use xlink:href="#copporn_logo-d"/>
            </mask>
            <use fill="#E35B5F" xlink:href="#copporn_logo-d"/>
            <rect width="7.734" height="34.805" x="5.977" fill="#FFFAD8" mask="url(#copporn_logo-e)"/>
            <rect width="7.734" height="34.805" x="20.039" fill="#FFFAD8" mask="url(#copporn_logo-e)"/>
            <rect width="7.734" height="34.805" x="34.102" fill="#FFFAD8" mask="url(#copporn_logo-e)"/>
            <rect width="7.734" height="34.805" x="48.164" fill="#FFFAD8" mask="url(#copporn_logo-e)"/>
            <rect width="7.734" height="34.805" x="62.227" fill="#FFFAD8" mask="url(#copporn_logo-e)"/>
            <rect width="7.734" height="34.805" x="76.289" fill="#FFFAD8" mask="url(#copporn_logo-e)"/>
          </g>
        </g>
        <g transform="translate(6.328 23.203)">
          <path fill="#FFFAD8" d="M5.73415927 9.85785883C6.41001199 9.85785883 7.03041436 9.69903068 7.595385 9.38136962 8.16035563 9.06370855 8.6223574 8.63929891 8.98140416 8.10812795L10.3595032 9.12359676C9.83149327 9.83182471 9.16885074 10.3942326 8.37155573 10.8108373 7.57426072 11.2274419 6.69513736 11.4357412 5.73415927 11.4357412 4.94214436 11.4357412 4.19766151 11.2847242 3.50068839 10.9826858 2.80371527 10.6806474 2.19651295 10.2718602 1.67906321 9.75631195 1.16161347 9.24076367.752411906 8.63669595.451446241 7.94409068.150480575 7.2514854 0 6.50941946 0 5.71787058 0 4.92632169.150480575 4.18425575.451446241 3.49165047.752411906 2.7990452 1.16161347 2.19497748 1.67906321 1.6794292 2.19651295 1.16388091 2.80371527.755093708 3.50068839.453055319 4.19766151.151016929 4.94214436 0 5.73415927 0 6.69513736 0 7.57426072.208299213 8.37155573.624903888 9.16885074 1.04150856 9.83149327 1.60391644 10.3595032 2.31214439L8.98140416 3.3276132C8.6223574 2.79644224 8.16035563 2.3720326 7.595385 2.05437153 7.03041436 1.73671047 6.41001199 1.57788232 5.73415927 1.57788232 5.18502893 1.57788232 4.67022696 1.6872394 4.18973792 1.90595686 3.70924887 2.12467431 3.28948727 2.42150069 2.93044051 2.7964449 2.57139375 3.17138911 2.28627266 3.60881745 2.07506869 4.10874306 1.86386471 4.60866867 1.75826431 5.14503915 1.75826431 5.71787058 1.75826431 6.290702 1.86386471 6.82707248 2.07506869 7.32699809 2.28627266 7.8269237 2.57139375 8.26435204 2.93044051 8.63929625 3.28948727 9.01424046 3.70924887 9.31106684 4.18973792 9.52978429 4.67022696 9.74850175 5.18502893 9.85785883 5.73415927 9.85785883L5.73415927 9.85785883zM17.0440756 3.18700983C17.6248866 3.18700983 18.1687286 3.29376318 18.6756182 3.50727307 19.1825077 3.72078297 19.6260294 4.01500561 20.0061966 4.38994981 20.3863637 4.76489402 20.6846849 5.20232237 20.9011689 5.70224798 21.117653 6.20217359 21.2258934 6.73854406 21.2258934 7.31137549 21.2258934 7.88420692 21.117653 8.42057739 20.9011689 8.920503 20.6846849 9.42042861 20.3863637 9.85785696 20.0061966 10.2328012 19.6260294 10.6077454 19.1825077 10.901968 18.6756182 11.1154779 18.1687286 11.3289878 17.6248866 11.4357412 17.0440756 11.4357412 16.4632647 11.4357412 15.9194226 11.3289878 15.4125331 11.1154779 14.9056435 10.901968 14.4621218 10.6077454 14.0819547 10.2328012 13.7017875 9.85785696 13.4034664 9.42042861 13.1869823 8.920503 12.9704982 8.42057739 12.8622578 7.88420692 12.8622578 7.31137549 12.8622578 6.73854406 12.9704982 6.20217359 13.1869823 5.70224798 13.4034664 5.20232237 13.7017875 4.76489402 14.0819547 4.38994981 14.4621218 4.01500561 14.9056435 3.72078297 15.4125331 3.50727307 15.9194226 3.29376318 16.4632647 3.18700983 17.0440756 3.18700983L17.0440756 3.18700983zM17.0440756 9.82661364C17.3925622 9.82661364 17.7225634 9.76152013 18.0340893 9.63133117 18.3456152 9.50114221 18.6175362 9.32148414 18.8498606 9.09235157 19.082185 8.863219 19.2643457 8.59503376 19.3963481 8.28778781 19.5283506 7.98054187 19.5943509 7.65507435 19.5943509 7.31137549 19.5943509 6.96767663 19.5283506 6.64220911 19.3963481 6.33496316 19.2643457 6.02771722 19.082185 5.75953198 18.8498606 5.53039941 18.6175362 5.30126684 18.3456152 5.12160877 18.0340893 4.99141981 17.7225634 4.86123084 17.3925622 4.79613734 17.0440756 4.79613734 16.6955891 4.79613734 16.3655878 4.86123084 16.0540619 4.99141981 15.7425361 5.12160877 15.470615 5.30126684 15.2382907 5.53039941 15.0059663 5.75953198 14.8211656 6.02771722 14.683883 6.33496316 14.5466004 6.64220911 14.4779601 6.96767663 14.4779601 7.31137549 14.4779601 7.65507435 14.5466004 7.98054187 14.683883 8.28778781 14.8211656 8.59503376 15.0059663 8.863219 15.2382907 9.09235157 15.470615 9.32148414 15.7425361 9.50114221 16.0540619 9.63133117 16.3655878 9.76152013 16.6955891 9.82661364 17.0440756 9.82661364L17.0440756 9.82661364zM27.9263061 3.17138723C28.507117 3.17138723 29.0509591 3.28074432 29.5578486 3.49946177 30.0647382 3.71817923 30.5082598 4.01500561 30.888427 4.38994981 31.2685942 4.76489402 31.5695553 5.20232237 31.7913195 5.70224798 32.0130837 6.20217359 32.1239641 6.73854406 32.1239641 7.31137549 32.1239641 7.88420692 32.0130837 8.42057739 31.7913195 8.920503 31.5695553 9.42042861 31.2685942 9.85785696 30.888427 10.2328012 30.5082598 10.6077454 30.0647382 10.9045718 29.5578486 11.1232892 29.0509591 11.3420067 28.507117 11.4513637 27.9263061 11.4513637 27.4405369 11.4513637 26.9811752 11.3732515 26.548207 11.2170248 26.1152389 11.060798 25.7192373 10.8472913 25.3601906 10.5764983L25.3601906 16.9817632 23.728648 16.9817632 23.728648 7.32699809 23.728648 7.31137549C23.728648 6.73854406 23.8368884 6.20217359 24.0533725 5.70224798 24.2698566 5.20232237 24.5681777 4.76489402 24.9483449 4.38994981 25.328512 4.01500561 25.7746738 3.71817923 26.2868434 3.49946177 26.799013 3.28074432 27.3454951 3.17138723 27.9263061 3.17138723L27.9263061 3.17138723zM27.9263061 9.84223624C28.2747926 9.84223624 28.6047939 9.77453899 28.9163197 9.63914247 29.2278456 9.50374595 29.4997666 9.32148414 29.732091 9.09235157 29.9644154 8.863219 30.1492161 8.59503376 30.2864987 8.28778781 30.4237813 7.98054187 30.4924215 7.65507435 30.4924215 7.31137549 30.4924215 6.96767663 30.4237813 6.64220911 30.2864987 6.33496316 30.1492161 6.02771722 29.9644154 5.75953198 29.732091 5.53039941 29.4997666 5.30126684 29.2278456 5.11900503 28.9163197 4.98360851 28.6047939 4.84821199 28.2747926 4.78051474 27.9263061 4.78051474 27.5672593 4.78051474 27.231978 4.84821199 26.9204522 4.98360851 26.6089263 5.11900503 26.3370052 5.30126684 26.1046809 5.53039941 25.8723565 5.75953198 25.6901958 6.02771722 25.5581933 6.33496316 25.4261908 6.64220911 25.3601906 6.96767663 25.3601906 7.31137549L25.3601906 7.32699809C25.3601906 7.67069694 25.4288308 7.99616446 25.5661134 8.30341041 25.703396 8.61065636 25.8881967 8.8788416 26.1205211 9.10797417 26.3528455 9.33710674 26.6247665 9.51676481 26.9362924 9.64695377 27.2478182 9.77714273 27.5778195 9.84223624 27.9263061 9.84223624L27.9263061 9.84223624zM38.8243767 3.17138723C39.4051876 3.17138723 39.9490297 3.28074432 40.4559193 3.49946177 40.9628088 3.71817923 41.4063305 4.01500561 41.7864977 4.38994981 42.1666648 4.76489402 42.467626 5.20232237 42.6893901 5.70224798 42.9111543 6.20217359 43.0220347 6.73854406 43.0220347 7.31137549 43.0220347 7.88420692 42.9111543 8.42057739 42.6893901 8.920503 42.467626 9.42042861 42.1666648 9.85785696 41.7864977 10.2328012 41.4063305 10.6077454 40.9628088 10.9045718 40.4559193 11.1232892 39.9490297 11.3420067 39.4051876 11.4513637 38.8243767 11.4513637 38.3386076 11.4513637 37.8792458 11.3732515 37.4462777 11.2170248 37.0133095 11.060798 36.617308 10.8472913 36.2582612 10.5764983L36.2582612 16.9817632 34.6267187 16.9817632 34.6267187 7.32699809 34.6267187 7.31137549C34.6267187 6.73854406 34.7349591 6.20217359 34.9514432 5.70224798 35.1679272 5.20232237 35.4662484 4.76489402 35.8464155 4.38994981 36.2265827 4.01500561 36.6727444 3.71817923 37.184914 3.49946177 37.6970837 3.28074432 38.2435658 3.17138723 38.8243767 3.17138723L38.8243767 3.17138723zM38.8243767 9.84223624C39.1728633 9.84223624 39.5028645 9.77453899 39.8143904 9.63914247 40.1259163 9.50374595 40.3978373 9.32148414 40.6301617 9.09235157 40.862486 8.863219 41.0472868 8.59503376 41.1845693 8.28778781 41.3218519 7.98054187 41.3904922 7.65507435 41.3904922 7.31137549 41.3904922 6.96767663 41.3218519 6.64220911 41.1845693 6.33496316 41.0472868 6.02771722 40.862486 5.75953198 40.6301617 5.53039941 40.3978373 5.30126684 40.1259163 5.11900503 39.8143904 4.98360851 39.5028645 4.84821199 39.1728633 4.78051474 38.8243767 4.78051474 38.46533 4.78051474 38.1300487 4.84821199 37.8185228 4.98360851 37.5069969 5.11900503 37.2350759 5.30126684 37.0027515 5.53039941 36.7704272 5.75953198 36.5882665 6.02771722 36.456264 6.33496316 36.3242615 6.64220911 36.2582612 6.96767663 36.2582612 7.31137549L36.2582612 7.32699809C36.2582612 7.67069694 36.3269015 7.99616446 36.4641841 8.30341041 36.6014667 8.61065636 36.7862674 8.8788416 37.0185917 9.10797417 37.2509161 9.33710674 37.5228372 9.51676481 37.834363 9.64695377 38.1458889 9.77714273 38.4758902 9.84223624 38.8243767 9.84223624L38.8243767 9.84223624zM67.7557792 5.07856674C68.114826 5.30769931 68.4210672 5.59411073 68.6745119 5.93780958L67.7557792 6.65644905 67.4072944 6.9376558C67.227771 6.67727788 66.9928101 6.46897867 66.7024047 6.31275192 66.4119992 6.15652516 66.097838 6.07841296 65.7599116 6.07841296 65.4853465 6.07841296 65.2266255 6.13048776 64.9837409 6.23463893 64.7408563 6.3387901 64.5296555 6.47939207 64.3501322 6.65644905 64.1706088 6.83350604 64.0280482 7.04180525 63.9224462 7.28135294 63.8168443 7.52090063 63.764044 7.77606717 63.764044 8.04686021L63.764044 11.0151537 63.764044 12.6867716 62.1483417 12.6867716 62.1483417 8.04686021 62.1483417 4.48490804 63.764044 4.48490804 63.764044 5.07856674C64.0491694 4.89109463 64.3606906 4.74528518 64.698617 4.64113402 65.0365433 4.53698285 65.3903047 4.48490804 65.7599116 4.48490804 66.1295186 4.48490804 66.48328 4.53698285 66.8212063 4.64113402 67.1591327 4.74528518 67.4706539 4.89109463 67.7557792 5.07856674L67.7557792 5.07856674zM75.9610127 5.00045375C76.4679022 5.33373749 76.8691837 5.76335462 77.1648693 6.28931802 77.4605549 6.81528142 77.6083954 7.390708 77.6083954 8.01561501L77.6083954 12.7180168 75.9610127 12.7180168 75.9610127 11.0151537 75.9610127 8.01561501C75.9610127 7.74482197 75.9082125 7.4870517 75.8026105 7.24229645 75.6970085 6.9975412 75.5518079 6.78403451 75.3670045 6.60176996 75.182201 6.41950542 74.9683602 6.27629971 74.7254756 6.17214854 74.482591 6.06799737 74.22387 6.01592257 73.9493049 6.01592257 73.6747397 6.01592257 73.4133787 6.06799737 73.165214 6.17214854 72.9170493 6.27629971 72.7032085 6.41950542 72.5236851 6.60176996 72.3441618 6.78403451 72.2016012 6.9975412 72.0959992 7.24229645 71.9903972 7.4870517 71.937597 7.74482197 71.937597 8.01561501L71.937597 11.0151537 71.937597 12.7180168 70.2902143 12.7180168 70.2902143 8.01561501 70.2902143 4.40679506 71.937597 4.40679506 71.937597 5.00045375C72.2227224 4.81298165 72.5368836 4.6671722 72.8800901 4.56302103 73.2232965 4.45886986 73.5796979 4.40679506 73.9493049 4.40679506 74.3189118 4.40679506 74.6753132 4.45886986 75.0185196 4.56302103 75.3617261 4.6671722 75.6758873 4.81298165 75.9610127 5.00045375L75.9610127 5.00045375z"/>
          <path fill="#E35B5F" d="M57.626524,10.1617467 C57.5575995,9.89868863 57.4055186,9.70095447 57.1702812,9.56830928 L55.1312441,8.38930614 L57.1702812,7.20983306 C57.4055186,7.07718786 57.5575995,6.87933622 57.626524,6.61639561 C57.6954486,6.353455 57.6636915,6.10461308 57.5305472,5.86963488 L57.0403126,5.02759049 C56.9070507,4.79261229 56.7094513,4.64069888 56.4457503,4.57185027 C56.1829902,4.50300166 55.9338738,4.53460622 55.6986365,4.66772138 L53.6592465,5.83897023 L53.6592465,3.48824829 C53.6592465,3.22248794 53.5622111,2.99303173 53.3679051,2.79893973 C53.173599,2.60473025 52.9438898,2.50791923 52.6778364,2.50791923 L51.6968967,2.50791923 C51.4308433,2.50791923 51.2011341,2.6052002 51.006828,2.79893973 C50.8124044,2.99303173 50.7154866,3.22248794 50.7154866,3.48824829 L50.7154866,5.83897023 L48.6764495,4.66725142 C48.4412121,4.53460622 48.1917429,4.5025317 47.9289828,4.57185027 C47.6657523,4.64069888 47.4676824,4.79261229 47.3344205,5.02712054 L46.8441859,5.86963488 C46.710924,6.10426062 46.6792845,6.353455 46.7482091,6.61639561 C46.8171336,6.87886626 46.9692146,7.07718786 47.2044519,7.20983306 L49.243489,8.38930614 L47.2044519,9.56830928 C46.9692146,9.70095447 46.8171336,9.89868863 46.7482091,10.1617467 C46.6792845,10.4246873 46.710924,10.6734118 46.8441859,10.90839 L47.3344205,11.7505518 C47.4676824,11.98553 47.6657523,12.1374435 47.9289828,12.2062921 C48.1922134,12.2751407 48.4412121,12.2434186 48.6764495,12.110421 L50.7154866,10.9391721 L50.7154866,13.289894 C50.7154866,13.5551844 50.8124044,13.7851106 51.006828,13.9792026 C51.2011341,14.1732946 51.4308433,14.2701056 51.6968967,14.2701056 L52.6778364,14.2701056 C52.9438898,14.2701056 53.1740695,14.1732946 53.3679051,13.9792026 C53.5622111,13.7851106 53.6592465,13.5551844 53.6592465,13.289894 L53.6592465,10.9391721 L55.6986365,12.1108909 C55.9338738,12.2434186 56.1829902,12.2756106 56.4457503,12.2062921 C56.7089808,12.1374435 56.9070507,11.98553 57.0403126,11.7505518 L57.5305472,10.90839 C57.6636915,10.6734118 57.6954486,10.4246873 57.626524,10.1617467 L57.626524,10.1617467 Z"/>
          <g transform="translate(34.102 4.57)"/>
        </g>
      </g>
    </g>
  </g>
</svg>
