<svg xmlns="http://www.w3.org/2000/svg" width="294" height="291" viewBox="0 0 294 291">
  <defs>
    <filter id="cuisinian_logo-a" width="109.6%" height="144%" x="-4.8%" y="-22%" filterUnits="objectBoundingBox">
      <feGaussianBlur in="SourceGraphic" stdDeviation="2"/>
    </filter>
  </defs>
  <g fill="none" fill-rule="evenodd" transform="translate(-186 -194)">
    <circle cx="236.968" cy="240.632" r="236.642" fill="#A5A39E"/>
    <circle cx="220.663" cy="218.327" r="217.337" fill="#7D7B78"/>
    <circle cx="126.117" cy="125.813" r="125.336" fill="#565354" transform="translate(127.86 128.948)"/>
    <g fill="#FFF" transform="translate(216.339 268.68)">
      <path d="M12.7637623,1.02743204 C11.8697945,0.723389975 8.86022871,2.50543395 7.06095778,5.71499671 C4.80766521,9.73444913 5.21127628,14.2183634 7.94090442,15.7485845 C9.11074505,16.4043935 10.6337136,16.4302883 12.0453301,15.8812645 C9.63476924,17.3683457 6.6847295,17.5674292 4.2550605,16.2053643 C0.475575379,14.0865967 -0.683843183,8.98186561 1.67034308,4.7824377 C4.02452934,0.583009796 8.98427716,-1.09133559 12.7637623,1.02743204 Z M13.2736928,1.31329752 C15.9887797,3.15074836 17.1909087,6.70251497 16.1819717,8.50226978 C15.4589002,9.79209407 13.8373123,10.2234086 12.547488,9.50033707 C11.2876596,8.79408119 10.8095336,7.18567356 11.5326051,5.89584928 C11.8857331,5.26593509 12.4451971,4.83053766 13.0705626,4.62919788 C13.6791125,4.45785402 14.2013099,4.15925586 14.4367286,3.73931307 C14.9075658,2.89942748 14.0499512,1.82731098 13.2736928,1.31329752 Z M17.2904499,19.0327847 C17.040089,19.7101403 17.7251241,20.7332324 18.9830702,21.1981883 C19.7249359,21.472393 20.4058024,21.6140669 21.0137476,21.6554648 C17.6002725,21.5669628 13.4022182,19.8319908 15.1666662,15.0582463 L18.4928892,6.05909285 C18.7909379,5.25271709 18.5203179,4.19949127 17.82614,3.79626639 L23.6397988,5.02854341 L23.7365639,5.06430925 C24.0591142,5.18352871 24.2014458,5.49276754 24.0822264,5.81531785 L20.171828,16.3949678 C19.5638088,18.0399744 17.7315619,17.8393485 17.2904499,19.0327847 Z M27.8084429,21.8205468 C27.5223162,22.5946675 27.7810142,23.6801484 28.4751921,24.0833732 L22.6615332,22.8510962 L22.5647681,22.8153304 C22.2744729,22.7080329 22.1118082,22.354617 22.2191057,22.0643218 L26.9759622,9.19456466 C27.2740108,8.3881889 27.0033909,7.33496309 26.309213,6.93173821 L32.1228718,8.16401522 L32.2196369,8.19978106 C32.5421872,8.31900052 32.6845188,8.62823936 32.5652993,8.95078966 L27.8084429,21.8205468 Z M37.121604,23.4195739 C36.9484342,24.2265086 37.3588191,25.2641876 38.1032698,25.5646311 L30.3029012,23.8906557 C31.1050753,23.922121 31.9050924,23.1441969 32.0782623,22.3372622 L34.6469488,10.367731 C34.8273341,9.52717407 34.4097338,8.52311742 33.665283,8.22267384 L39.5950779,8.61595226 L39.6959448,8.63759849 C40.0321675,8.70975261 40.2170156,8.99561644 40.1448615,9.33183922 L37.121604,23.4195739 Z M38.1354848,6.40350158 C39.5812428,6.71376427 41.010562,5.78952393 41.3136092,4.37738823 C41.6238719,2.93163025 40.6996316,1.50231109 39.2538736,1.1920484 C37.8081156,0.881785698 36.4124188,1.81324146 36.1021561,3.25899943 C35.7991088,4.67113513 36.6897268,6.09323888 38.1354848,6.40350158 Z M43.7010619,24.9106649 C43.6786284,25.53305 44.3365647,26.2559579 45.5801704,26.5439805 C42.4466076,25.8724386 40.1326138,23.6534535 40.4794175,21.3061777 C40.6905153,19.8774011 42.0570774,18.8626688 43.485854,19.0737666 C44.9486491,19.2898906 45.9633814,20.6564527 45.7522835,22.0852293 C45.6316562,22.901673 45.1468777,23.5947923 44.4981974,23.9856068 C44.0787588,24.2364857 43.7223309,24.5314353 43.7010619,24.9106649 Z M53.3546498,22.8608473 C53.1616957,25.5784649 49.7594186,27.1962142 46.2214956,26.6734957 C47.4461612,26.8544367 48.6086123,25.8095475 48.7895534,24.5848819 C49.2921673,21.1830328 41.0775281,17.2579773 41.7811876,12.4953886 C42.1832787,9.77390934 45.6010025,8.99270844 48.1183708,9.36464276 C48.5265927,9.42495643 48.8667776,9.47521783 49.1969102,9.5935162 C47.9973753,9.24248273 46.8612193,9.87412383 46.6400692,11.3709374 C46.1072984,14.9768974 53.635009,18.1400004 53.3546498,22.8608473 Z M53.1870061,16.2314715 C53.109345,14.169093 52.5032626,10.7424815 49.532069,9.67779609 C50.9886735,10.1710941 51.7536914,10.875062 52.9253985,10.9438952 C53.304628,10.9651643 53.8400361,10.8704639 54.0012407,10.720476 L53.1870061,16.2314715 Z M61.1621037,25.4287665 L61.9566406,11.0422079 C61.9756033,10.6988533 61.7485289,10.4452312 61.4051743,10.4262685 L61.3021679,10.4205797 L55.3833972,10.9547042 C56.1655277,11.1356602 56.7342631,12.0625151 56.6868563,12.9209016 L56.0117844,25.1443261 C55.9662739,25.9683772 55.2970364,26.8613018 54.4997357,26.9550294 L62.4655628,27.3949639 C61.6834323,27.2140079 61.1165932,26.2528176 61.1621037,25.4287665 Z M59.5161161,8.46216995 C60.9925409,8.54370953 62.2606515,7.40833779 62.3402948,5.96624839 C62.4218344,4.48982353 61.2864627,3.22171294 59.8100378,3.14017335 C58.333613,3.05863377 57.0998378,4.19590177 57.0182982,5.67232664 C56.9386549,7.11441604 58.0396912,8.38063036 59.5161161,8.46216995 Z M70.7581763,25.2538854 C70.7600969,26.07919 71.3812359,27.0062173 72.172473,27.1419276 L64.1945284,27.1604928 C64.9851252,27.0211015 65.601943,26.0911934 65.6000225,25.2658888 L65.5715345,13.0238704 C65.569534,12.1641781 64.9484749,11.2715385 64.1572379,11.1358282 L70.0355327,10.2624521 L70.1386958,10.262212 C70.4825727,10.2614118 70.7238467,10.5015655 70.724647,10.8454424 L70.7581763,25.2538854 Z M79.8021394,25.2328395 C79.8040599,26.0581442 80.425199,26.9851714 81.216436,27.1208817 L73.2384914,27.1394469 C74.0290882,27.0000556 74.6459061,26.0701475 74.6439856,25.2448429 L74.620379,15.1004737 C74.6162978,13.3467014 76.4034175,12.8955002 76.4004567,11.6231556 C76.3986962,10.8666264 75.4342404,10.1811132 74.0587327,10.1843141 C72.6144496,10.187675 71.3433053,10.7064512 70.8967455,10.9138177 C74.0911998,9.35892943 79.7641288,8.89868573 79.7774125,14.6070426 L79.8021394,25.2328395 Z M89.1892139,23.3363325 C89.2843774,24.1561344 90.0062879,25.007039 90.8077921,25.0524742 L82.8830396,25.9723887 C83.6528226,25.7445566 84.1606151,24.7509067 84.0654515,23.9311048 L82.6538586,11.7707087 C82.5547299,10.9167483 81.8367845,10.1000022 81.0352803,10.0545669 L86.7772407,8.5225661 L86.879716,8.51067065 C87.2213002,8.47101916 87.4881651,8.68237203 87.5278166,9.02395619 L89.1892139,23.3363325 Z M84.6844098,6.89609481 C86.1532217,6.72559342 87.2099861,5.39126866 87.0434498,3.95661519 C86.8729484,2.48780331 85.5386237,1.43103895 84.0698118,1.60154035 C82.6009999,1.77204174 81.578394,3.10240135 81.7488954,4.57121323 C81.9154316,6.0058667 83.215598,7.0665962 84.6844098,6.89609481 Z M94.4090698,14.3345163 C92.9538197,14.5966733 91.5958699,13.6532974 91.3337129,12.1980473 C90.9252357,9.93056467 93.5470777,7.22200698 96.1658066,6.43578242 C94.977941,6.82447785 94.4108207,7.5555858 94.5388509,8.26628932 C94.6242043,8.74009167 95.0202417,9.19286697 95.5117114,9.59350921 C96.0647706,9.94811508 96.4513516,10.5423592 96.5793818,11.2530627 C96.8415388,12.7083127 95.8643199,14.0723592 94.4090698,14.3345163 Z M105.885578,19.4649835 C106.031899,20.2772161 106.805683,21.0812376 107.60846,21.0763862 L101.939876,22.9710899 L101.87219,22.9832833 C101.53376,23.04425 101.214242,22.8222792 101.153276,22.483849 L99.3913364,12.7032148 C98.4059064,13.4397968 96.2292512,14.740386 96.5593409,17.9304641 C96.7166092,19.579316 97.3821455,20.7522511 98.2330725,21.4026105 C99.0839996,22.0529699 100.295629,22.1841132 100.945366,21.7176527 C100.236777,22.4393044 98.995533,23.5015007 97.1680097,23.8307211 C95.0358991,24.2148117 92.9212094,23.3378766 92.0721502,21.5341173 C91.1831513,19.7026117 91.9064243,17.5107796 93.5605037,16.0247996 C96.1417834,13.6729622 103.718392,11.1200641 103.412067,8.44982477 C103.348363,7.90223969 102.961782,7.30799562 102.430372,6.87960703 C103.14319,7.3451983 103.637397,7.95499537 103.912993,8.70899824 C103.977319,8.87211669 104.013899,9.07517484 104.044383,9.24438996 L105.885578,19.4649835 Z M114.886978,16.5717191 C115.132446,17.3596766 115.999565,18.0620279 116.795603,17.9581142 L109.17868,20.3309692 C109.892895,19.9644031 110.207712,18.8938501 109.962244,18.1058926 L106.321139,6.41785685 C106.065443,5.59706782 105.208552,4.92754805 104.412515,5.03146174 L109.771016,2.4617149 L109.869511,2.43103143 C110.197826,2.3287532 110.499242,2.48697936 110.60152,2.81529497 L114.886978,16.5717191 Z M123.521679,13.8818015 C123.767147,14.669759 124.634266,15.3721103 125.430303,15.2681966 L117.813381,17.6410517 C118.527596,17.2744855 118.842412,16.2039325 118.596945,15.415975 L115.579737,5.7306645 C115.058118,4.05625488 116.632397,3.09759777 116.253968,1.88283 C116.028956,1.16053566 114.905115,0.790283492 113.591853,1.19939643 C112.212927,1.62896502 111.151577,2.4998679 110.786134,2.82981898 C113.379217,0.40121114 118.663463,-1.71319003 120.361281,3.73684912 L123.521679,13.8818015 Z" filter="url(#cuisinian_logo-a)"/>
      <path d="M12.7637623,1.02743204 C11.8697945,0.723389975 8.86022871,2.50543395 7.06095778,5.71499671 C4.80766521,9.73444913 5.21127628,14.2183634 7.94090442,15.7485845 C9.11074505,16.4043935 10.6337136,16.4302883 12.0453301,15.8812645 C9.63476924,17.3683457 6.6847295,17.5674292 4.2550605,16.2053643 C0.475575379,14.0865967 -0.683843183,8.98186561 1.67034308,4.7824377 C4.02452934,0.583009796 8.98427716,-1.09133559 12.7637623,1.02743204 Z M13.2736928,1.31329752 C15.9887797,3.15074836 17.1909087,6.70251497 16.1819717,8.50226978 C15.4589002,9.79209407 13.8373123,10.2234086 12.547488,9.50033707 C11.2876596,8.79408119 10.8095336,7.18567356 11.5326051,5.89584928 C11.8857331,5.26593509 12.4451971,4.83053766 13.0705626,4.62919788 C13.6791125,4.45785402 14.2013099,4.15925586 14.4367286,3.73931307 C14.9075658,2.89942748 14.0499512,1.82731098 13.2736928,1.31329752 Z M17.2904499,19.0327847 C17.040089,19.7101403 17.7251241,20.7332324 18.9830702,21.1981883 C19.7249359,21.472393 20.4058024,21.6140669 21.0137476,21.6554648 C17.6002725,21.5669628 13.4022182,19.8319908 15.1666662,15.0582463 L18.4928892,6.05909285 C18.7909379,5.25271709 18.5203179,4.19949127 17.82614,3.79626639 L23.6397988,5.02854341 L23.7365639,5.06430925 C24.0591142,5.18352871 24.2014458,5.49276754 24.0822264,5.81531785 L20.171828,16.3949678 C19.5638088,18.0399744 17.7315619,17.8393485 17.2904499,19.0327847 Z M27.8084429,21.8205468 C27.5223162,22.5946675 27.7810142,23.6801484 28.4751921,24.0833732 L22.6615332,22.8510962 L22.5647681,22.8153304 C22.2744729,22.7080329 22.1118082,22.354617 22.2191057,22.0643218 L26.9759622,9.19456466 C27.2740108,8.3881889 27.0033909,7.33496309 26.309213,6.93173821 L32.1228718,8.16401522 L32.2196369,8.19978106 C32.5421872,8.31900052 32.6845188,8.62823936 32.5652993,8.95078966 L27.8084429,21.8205468 Z M37.121604,23.4195739 C36.9484342,24.2265086 37.3588191,25.2641876 38.1032698,25.5646311 L30.3029012,23.8906557 C31.1050753,23.922121 31.9050924,23.1441969 32.0782623,22.3372622 L34.6469488,10.367731 C34.8273341,9.52717407 34.4097338,8.52311742 33.665283,8.22267384 L39.5950779,8.61595226 L39.6959448,8.63759849 C40.0321675,8.70975261 40.2170156,8.99561644 40.1448615,9.33183922 L37.121604,23.4195739 Z M38.1354848,6.40350158 C39.5812428,6.71376427 41.010562,5.78952393 41.3136092,4.37738823 C41.6238719,2.93163025 40.6996316,1.50231109 39.2538736,1.1920484 C37.8081156,0.881785698 36.4124188,1.81324146 36.1021561,3.25899943 C35.7991088,4.67113513 36.6897268,6.09323888 38.1354848,6.40350158 Z M43.7010619,24.9106649 C43.6786284,25.53305 44.3365647,26.2559579 45.5801704,26.5439805 C42.4466076,25.8724386 40.1326138,23.6534535 40.4794175,21.3061777 C40.6905153,19.8774011 42.0570774,18.8626688 43.485854,19.0737666 C44.9486491,19.2898906 45.9633814,20.6564527 45.7522835,22.0852293 C45.6316562,22.901673 45.1468777,23.5947923 44.4981974,23.9856068 C44.0787588,24.2364857 43.7223309,24.5314353 43.7010619,24.9106649 Z M53.3546498,22.8608473 C53.1616957,25.5784649 49.7594186,27.1962142 46.2214956,26.6734957 C47.4461612,26.8544367 48.6086123,25.8095475 48.7895534,24.5848819 C49.2921673,21.1830328 41.0775281,17.2579773 41.7811876,12.4953886 C42.1832787,9.77390934 45.6010025,8.99270844 48.1183708,9.36464276 C48.5265927,9.42495643 48.8667776,9.47521783 49.1969102,9.5935162 C47.9973753,9.24248273 46.8612193,9.87412383 46.6400692,11.3709374 C46.1072984,14.9768974 53.635009,18.1400004 53.3546498,22.8608473 Z M53.1870061,16.2314715 C53.109345,14.169093 52.5032626,10.7424815 49.532069,9.67779609 C50.9886735,10.1710941 51.7536914,10.875062 52.9253985,10.9438952 C53.304628,10.9651643 53.8400361,10.8704639 54.0012407,10.720476 L53.1870061,16.2314715 Z M61.1621037,25.4287665 L61.9566406,11.0422079 C61.9756033,10.6988533 61.7485289,10.4452312 61.4051743,10.4262685 L61.3021679,10.4205797 L55.3833972,10.9547042 C56.1655277,11.1356602 56.7342631,12.0625151 56.6868563,12.9209016 L56.0117844,25.1443261 C55.9662739,25.9683772 55.2970364,26.8613018 54.4997357,26.9550294 L62.4655628,27.3949639 C61.6834323,27.2140079 61.1165932,26.2528176 61.1621037,25.4287665 Z M59.5161161,8.46216995 C60.9925409,8.54370953 62.2606515,7.40833779 62.3402948,5.96624839 C62.4218344,4.48982353 61.2864627,3.22171294 59.8100378,3.14017335 C58.333613,3.05863377 57.0998378,4.19590177 57.0182982,5.67232664 C56.9386549,7.11441604 58.0396912,8.38063036 59.5161161,8.46216995 Z M70.7581763,25.2538854 C70.7600969,26.07919 71.3812359,27.0062173 72.172473,27.1419276 L64.1945284,27.1604928 C64.9851252,27.0211015 65.601943,26.0911934 65.6000225,25.2658888 L65.5715345,13.0238704 C65.569534,12.1641781 64.9484749,11.2715385 64.1572379,11.1358282 L70.0355327,10.2624521 L70.1386958,10.262212 C70.4825727,10.2614118 70.7238467,10.5015655 70.724647,10.8454424 L70.7581763,25.2538854 Z M79.8021394,25.2328395 C79.8040599,26.0581442 80.425199,26.9851714 81.216436,27.1208817 L73.2384914,27.1394469 C74.0290882,27.0000556 74.6459061,26.0701475 74.6439856,25.2448429 L74.620379,15.1004737 C74.6162978,13.3467014 76.4034175,12.8955002 76.4004567,11.6231556 C76.3986962,10.8666264 75.4342404,10.1811132 74.0587327,10.1843141 C72.6144496,10.187675 71.3433053,10.7064512 70.8967455,10.9138177 C74.0911998,9.35892943 79.7641288,8.89868573 79.7774125,14.6070426 L79.8021394,25.2328395 Z M89.1892139,23.3363325 C89.2843774,24.1561344 90.0062879,25.007039 90.8077921,25.0524742 L82.8830396,25.9723887 C83.6528226,25.7445566 84.1606151,24.7509067 84.0654515,23.9311048 L82.6538586,11.7707087 C82.5547299,10.9167483 81.8367845,10.1000022 81.0352803,10.0545669 L86.7772407,8.5225661 L86.879716,8.51067065 C87.2213002,8.47101916 87.4881651,8.68237203 87.5278166,9.02395619 L89.1892139,23.3363325 Z M84.6844098,6.89609481 C86.1532217,6.72559342 87.2099861,5.39126866 87.0434498,3.95661519 C86.8729484,2.48780331 85.5386237,1.43103895 84.0698118,1.60154035 C82.6009999,1.77204174 81.578394,3.10240135 81.7488954,4.57121323 C81.9154316,6.0058667 83.215598,7.0665962 84.6844098,6.89609481 Z M94.4090698,14.3345163 C92.9538197,14.5966733 91.5958699,13.6532974 91.3337129,12.1980473 C90.9252357,9.93056467 93.5470777,7.22200698 96.1658066,6.43578242 C94.977941,6.82447785 94.4108207,7.5555858 94.5388509,8.26628932 C94.6242043,8.74009167 95.0202417,9.19286697 95.5117114,9.59350921 C96.0647706,9.94811508 96.4513516,10.5423592 96.5793818,11.2530627 C96.8415388,12.7083127 95.8643199,14.0723592 94.4090698,14.3345163 Z M105.885578,19.4649835 C106.031899,20.2772161 106.805683,21.0812376 107.60846,21.0763862 L101.939876,22.9710899 L101.87219,22.9832833 C101.53376,23.04425 101.214242,22.8222792 101.153276,22.483849 L99.3913364,12.7032148 C98.4059064,13.4397968 96.2292512,14.740386 96.5593409,17.9304641 C96.7166092,19.579316 97.3821455,20.7522511 98.2330725,21.4026105 C99.0839996,22.0529699 100.295629,22.1841132 100.945366,21.7176527 C100.236777,22.4393044 98.995533,23.5015007 97.1680097,23.8307211 C95.0358991,24.2148117 92.9212094,23.3378766 92.0721502,21.5341173 C91.1831513,19.7026117 91.9064243,17.5107796 93.5605037,16.0247996 C96.1417834,13.6729622 103.718392,11.1200641 103.412067,8.44982477 C103.348363,7.90223969 102.961782,7.30799562 102.430372,6.87960703 C103.14319,7.3451983 103.637397,7.95499537 103.912993,8.70899824 C103.977319,8.87211669 104.013899,9.07517484 104.044383,9.24438996 L105.885578,19.4649835 Z M114.886978,16.5717191 C115.132446,17.3596766 115.999565,18.0620279 116.795603,17.9581142 L109.17868,20.3309692 C109.892895,19.9644031 110.207712,18.8938501 109.962244,18.1058926 L106.321139,6.41785685 C106.065443,5.59706782 105.208552,4.92754805 104.412515,5.03146174 L109.771016,2.4617149 L109.869511,2.43103143 C110.197826,2.3287532 110.499242,2.48697936 110.60152,2.81529497 L114.886978,16.5717191 Z M123.521679,13.8818015 C123.767147,14.669759 124.634266,15.3721103 125.430303,15.2681966 L117.813381,17.6410517 C118.527596,17.2744855 118.842412,16.2039325 118.596945,15.415975 L115.579737,5.7306645 C115.058118,4.05625488 116.632397,3.09759777 116.253968,1.88283 C116.028956,1.16053566 114.905115,0.790283492 113.591853,1.19939643 C112.212927,1.62896502 111.151577,2.4998679 110.786134,2.82981898 C113.379217,0.40121114 118.663463,-1.71319003 120.361281,3.73684912 L123.521679,13.8818015 Z"/>
    </g>
  </g>
</svg>
