<svg xmlns="http://www.w3.org/2000/svg" xmlns:xlink="http://www.w3.org/1999/xlink" width="595" height="842" viewBox="0 0 595 842">
  <defs>
    <rect id="design_portfolio-a" width="595" height="842"/>
    <rect id="design_portfolio-c" width="28" height="5" x=".099" y=".04" rx="2.5"/>
    <rect id="design_portfolio-d" width="28" height="5" x=".953" y=".679" rx="2.5"/>
    <rect id="design_portfolio-e" width="48.603" height="5" x=".953" y=".679" rx="2.5"/>
    <rect id="design_portfolio-f" width="28" height="5" x=".099" y=".04" rx="2.5"/>
    <rect id="design_portfolio-g" width="28" height="5" x=".099" y=".04" rx="2.5"/>
    <polygon id="design_portfolio-h" points="83.055 .34 102.78 .34 112.59 10.182 92.918 32.976 73.519 10.134"/>
    <filter id="design_portfolio-i" width="110.2%" height="112.3%" x="-5.1%" y="-6.1%" filterUnits="objectBoundingBox">
      <feGaussianBlur in="SourceAlpha" result="shadowBlurInner1" stdDeviation="1.5"/>
      <feOffset dy="1" in="shadowBlurInner1" result="shadowOffsetInner1"/>
      <feComposite in="shadowOffsetInner1" in2="SourceAlpha" k2="-1" k3="1" operator="arithmetic" result="shadowInnerInner1"/>
      <feColorMatrix in="shadowInnerInner1" values="0 0 0 0 0   0 0 0 0 0   0 0 0 0 0  0 0 0 0.5 0"/>
    </filter>
    <path id="design_portfolio-j" d="M6.38306471,32.6911033 L0.0967271258,32.6911033 L0.0967271258,13.8320905 L6.38306471,13.8320905 L6.38306471,32.6911033 Z M6.38306471,9.15559188 L0.0967271258,9.15559188 L0.0967271258,0.0753264852 L6.38306471,0.0753264852 L6.38306471,9.15559188 Z M28.5064551,19.1644102 L18.2828328,19.1644102 L18.2828328,32.9039783 L12.026248,32.9039783 L12.026248,0.0753264852 L34.3776705,0.0753264852 L34.3776705,32.9039783 L28.5064551,32.9039783 L28.5064551,19.1644102 Z M17.339973,5.70621492 L17.339973,13.8320905 L27.7075672,13.8320905 L27.7075672,5.70621492 L17.339973,5.70621492 Z M46.2778822,32.9450655 L40.0212974,32.9450655 L40.0212974,0.116413659 L46.2778822,0.116413659 L56.5015044,18.5196621 L56.5015044,0.116413659 L62.3727199,0.116413659 L62.3727199,32.9450655 L56.5015044,32.9450655 L46.2778822,13.9931488 L46.2778822,32.9450655 Z"/>
    <filter id="design_portfolio-k" width="106.4%" height="112.2%" x="-3.2%" y="-6.1%" filterUnits="objectBoundingBox">
      <feGaussianBlur in="SourceAlpha" result="shadowBlurInner1" stdDeviation="1.5"/>
      <feOffset dy="1" in="shadowBlurInner1" result="shadowOffsetInner1"/>
      <feComposite in="shadowOffsetInner1" in2="SourceAlpha" k2="-1" k3="1" operator="arithmetic" result="shadowInnerInner1"/>
      <feColorMatrix in="shadowInnerInner1" values="0 0 0 0 0   0 0 0 0 0   0 0 0 0 0  0 0 0 0.5 0"/>
    </filter>
    <path id="design_portfolio-l" d="M4.80614063,51.4307734 L6.33214062,51.4307734 L10.6021406,61.3427734 L8.58614063,61.3427734 L7.66214063,59.0747734 L3.36414063,59.0747734 L2.46814063,61.3427734 L0.494140625,61.3427734 L4.80614063,51.4307734 Z M7.04614062,57.5627734 L5.52014062,53.5307734 L3.96614062,57.5627734 L7.04614062,57.5627734 Z M11.5821406,50.7587734 L13.2621406,50.7587734 L13.2621406,61.3427734 L11.5821406,61.3427734 L11.5821406,50.7587734 Z M14.2841406,54.6227734 L16.1041406,54.6227734 L17.5601406,59.3267734 L17.5881406,59.3267734 L18.9461406,54.6227734 L20.7661406,54.6227734 L22.2221406,59.3267734 L22.2501406,59.3267734 L23.6501406,54.6227734 L25.3441406,54.6227734 L23.0621406,61.3427734 L21.3961406,61.3427734 L19.8001406,56.7507734 L19.7721406,56.7507734 L18.3581406,61.3427734 L16.6221406,61.3427734 L14.2841406,54.6227734 Z M30.5381406,60.4187734 L30.4961406,60.4187734 C30.2534727,60.801442 29.9454758,61.0791059 29.5721406,61.2517734 C29.1988054,61.424441 28.7881429,61.5107734 28.3401406,61.5107734 C28.0321391,61.5107734 27.7311421,61.4687739 27.4371406,61.3847734 C27.1431392,61.300773 26.8818084,61.1747743 26.6531406,61.0067734 C26.4244728,60.8387726 26.2401413,60.6287747 26.1001406,60.3767734 C25.9601399,60.1247722 25.8901406,59.8307751 25.8901406,59.4947734 C25.8901406,59.1307716 25.9554733,58.8204414 26.0861406,58.5637734 C26.2168079,58.3071055 26.3918062,58.092441 26.6111406,57.9197734 C26.8304751,57.7471059 27.0848058,57.6094406 27.3741406,57.5067734 C27.6634754,57.4041063 27.9644724,57.327107 28.2771406,57.2757734 C28.5898089,57.2244398 28.9048057,57.1917735 29.2221406,57.1777734 C29.5394755,57.1637734 29.8381392,57.1567734 30.1181406,57.1567734 L30.5381406,57.1567734 L30.5381406,56.9747734 C30.5381406,56.5547713 30.3934754,56.2397745 30.1041406,56.0297734 C29.8148058,55.8197724 29.4461429,55.7147734 28.9981406,55.7147734 C28.6434722,55.7147734 28.3121422,55.7777728 28.0041406,55.9037734 C27.6961391,56.0297741 27.4301417,56.2001057 27.2061406,56.4147734 L26.3241406,55.5327734 C26.6974758,55.1501049 27.1338048,54.8747743 27.6331406,54.7067734 C28.1324765,54.5387726 28.648138,54.4547734 29.1801406,54.4547734 C29.656143,54.4547734 30.0574723,54.5084396 30.3841406,54.6157734 C30.7108089,54.7231073 30.9814729,54.8607726 31.1961406,55.0287734 C31.4108084,55.1967743 31.5764734,55.390439 31.6931406,55.6097734 C31.8098079,55.8291079 31.893807,56.0507723 31.9451406,56.2747734 C31.9964742,56.4987746 32.0268072,56.7157724 32.0361406,56.9257734 C32.045474,57.1357745 32.0501406,57.320106 32.0501406,57.4787734 L32.0501406,61.3427734 L30.5381406,61.3427734 L30.5381406,60.4187734 Z M30.4401406,58.3327734 L30.0901406,58.3327734 C29.8568061,58.3327734 29.5954754,58.3421067 29.3061406,58.3607734 C29.0168058,58.3794402 28.7438086,58.4237731 28.4871406,58.4937734 C28.2304727,58.5637738 28.0134748,58.6664394 27.8361406,58.8017734 C27.6588064,58.9371074 27.5701406,59.1261056 27.5701406,59.3687734 C27.5701406,59.5274409 27.6051403,59.6604396 27.6751406,59.7677734 C27.745141,59.8751073 27.8361401,59.9661064 27.9481406,60.0407734 C28.0601412,60.1154405 28.1861399,60.1691066 28.3261406,60.2017734 C28.4661413,60.2344403 28.6061399,60.2507734 28.7461406,60.2507734 C29.3248102,60.2507734 29.7518059,60.1131081 30.0271406,59.8377734 C30.3024753,59.5624387 30.4401406,59.1867758 30.4401406,58.7107734 L30.4401406,58.3327734 Z M32.9461406,54.6227734 L34.7941406,54.6227734 L36.6701406,59.2847734 L36.6981406,59.2847734 L38.3781406,54.6227734 L40.1281406,54.6227734 L36.9501406,62.7847734 C36.8288067,63.1021084 36.695808,63.3797722 36.5511406,63.6177734 C36.4064732,63.8557746 36.2361416,64.0564393 36.0401406,64.2197734 C35.8441396,64.3831076 35.613142,64.5044397 35.3471406,64.5837734 C35.0811393,64.6631072 34.7614758,64.7027734 34.3881406,64.7027734 C33.9494718,64.7027734 33.5201427,64.646774 33.1001406,64.5347734 L33.3101406,63.0227734 C33.4408079,63.0694403 33.5784732,63.1091066 33.7231406,63.1417734 C33.867808,63.1744403 34.0148065,63.1907734 34.1641406,63.1907734 C34.369475,63.1907734 34.5421399,63.172107 34.6821406,63.1347734 C34.8221413,63.0974399 34.9411401,63.0391072 35.0391406,62.9597734 C35.1371411,62.8804397 35.218807,62.7777741 35.2841406,62.6517734 C35.3494743,62.5257728 35.4194736,62.3741077 35.4941406,62.1967734 L35.8161406,61.3987734 L32.9461406,54.6227734 Z M44.7061406,56.4847734 C44.3794723,56.0274378 43.94081,55.7987734 43.3901406,55.7987734 C43.1661395,55.7987734 42.9468084,55.8547729 42.7321406,55.9667734 C42.5174729,56.078774 42.4101406,56.2607722 42.4101406,56.5127734 C42.4101406,56.7181078 42.4988064,56.8674396 42.6761406,56.9607734 C42.8534748,57.0541072 43.0774726,57.1334398 43.3481406,57.1987734 C43.6188086,57.2641071 43.9104724,57.3317731 44.2231406,57.4017734 C44.5358089,57.4717738 44.8274726,57.579106 45.0981406,57.7237734 C45.3688086,57.8684408 45.5928064,58.0667722 45.7701406,58.3187734 C45.9474748,58.5707747 46.0361406,58.9161046 46.0361406,59.3547734 C46.0361406,59.7561088 45.9498082,60.0944387 45.7771406,60.3697734 C45.6044731,60.6451081 45.3804753,60.8667726 45.1051406,61.0347734 C44.8298059,61.2027743 44.5194757,61.3241064 44.1741406,61.3987734 C43.8288056,61.4734405 43.4834757,61.5107734 43.1381406,61.5107734 C42.6154713,61.5107734 42.1348095,61.4361075 41.6961406,61.2867734 C41.2574718,61.1374394 40.8654757,60.8667754 40.5201406,60.4747734 L41.6401406,59.4247734 C41.8548084,59.6674413 42.0858061,59.8657727 42.3331406,60.0197734 C42.5804752,60.1737742 42.8814722,60.2507734 43.2361406,60.2507734 C43.3574746,60.2507734 43.4834733,60.2367736 43.6141406,60.2087734 C43.7448079,60.1807733 43.8661401,60.1341071 43.9781406,60.0687734 C44.0901412,60.0034398 44.1811403,59.9217739 44.2511406,59.8237734 C44.321141,59.7257729 44.3561406,59.6114408 44.3561406,59.4807734 C44.3561406,59.2474389 44.2674748,59.074774 44.0901406,58.9627734 C43.9128064,58.8507729 43.6888086,58.7597738 43.4181406,58.6897734 C43.1474726,58.6197731 42.8558089,58.5544404 42.5431406,58.4937734 C42.2304724,58.4331065 41.9388086,58.3351074 41.6681406,58.1997734 C41.3974726,58.0644394 41.1734748,57.8754413 40.9961406,57.6327734 C40.8188064,57.3901056 40.7301406,57.0541089 40.7301406,56.6247734 C40.7301406,56.2514382 40.8071399,55.9271081 40.9611406,55.6517734 C41.1151414,55.3764387 41.3181394,55.1501077 41.5701406,54.9727734 C41.8221419,54.7954392 42.1114723,54.6647739 42.4381406,54.5807734 C42.7648089,54.496773 43.0961389,54.4547734 43.4321406,54.4547734 C43.8801429,54.4547734 44.3234718,54.5317727 44.7621406,54.6857734 C45.2008095,54.8397742 45.5554726,55.1034382 45.8261406,55.4767734 L44.7061406,56.4847734 Z M51.4821406,50.7587734 L53.1621406,50.7587734 L53.1621406,55.4767734 L53.2041406,55.4767734 C53.288141,55.3647729 53.3954733,55.2504407 53.5261406,55.1337734 C53.6568079,55.0171062 53.815473,54.9074406 54.0021406,54.8047734 C54.1888082,54.7021063 54.4034727,54.6181071 54.6461406,54.5527734 C54.8888085,54.4874398 55.1688057,54.4547734 55.4861406,54.4547734 C55.962143,54.4547734 56.4008053,54.5457725 56.8021406,54.7277734 C57.203476,54.9097743 57.5464725,55.1594385 57.8311406,55.4767734 C58.1158087,55.7941084 58.3374732,56.167438 58.4961406,56.5967734 C58.6548081,57.0261089 58.7341406,57.4881043 58.7341406,57.9827734 C58.7341406,58.4774426 58.6594747,58.939438 58.5101406,59.3687734 C58.3608065,59.7981089 58.1414754,60.1714385 57.8521406,60.4887734 C57.5628058,60.8061084 57.2128093,61.0557725 56.8021406,61.2377734 C56.3914719,61.4197743 55.9294765,61.5107734 55.4161406,61.5107734 C54.9401382,61.5107734 54.4968093,61.417441 54.0861406,61.2307734 C53.6754719,61.0441058 53.3488085,60.7454422 53.1061406,60.3347734 L53.0781406,60.3347734 L53.0781406,61.3427734 L51.4821406,61.3427734 L51.4821406,50.7587734 Z M57.0541406,57.9827734 C57.0541406,57.7214388 57.0098077,57.4694413 56.9211406,57.2267734 C56.8324735,56.9841056 56.7018082,56.769441 56.5291406,56.5827734 C56.3564731,56.3961058 56.1488085,56.246774 55.9061406,56.1347734 C55.6634727,56.0227729 55.3881422,55.9667734 55.0801406,55.9667734 C54.7721391,55.9667734 54.4968085,56.0227729 54.2541406,56.1347734 C54.0114727,56.246774 53.8038082,56.3961058 53.6311406,56.5827734 C53.4584731,56.769441 53.3278077,56.9841056 53.2391406,57.2267734 C53.1504735,57.4694413 53.1061406,57.7214388 53.1061406,57.9827734 C53.1061406,58.2441081 53.1504735,58.4961056 53.2391406,58.7387734 C53.3278077,58.9814413 53.4584731,59.1961058 53.6311406,59.3827734 C53.8038082,59.569441 54.0114727,59.7187729 54.2541406,59.8307734 C54.4968085,59.942774 54.7721391,59.9987734 55.0801406,59.9987734 C55.3881422,59.9987734 55.6634727,59.942774 55.9061406,59.8307734 C56.1488085,59.7187729 56.3564731,59.569441 56.5291406,59.3827734 C56.7018082,59.1961058 56.8324735,58.9814413 56.9211406,58.7387734 C57.0098077,58.4961056 57.0541406,58.2441081 57.0541406,57.9827734 Z M61.6461406,58.5707734 C61.7021409,59.074776 61.8981389,59.466772 62.2341406,59.7467734 C62.5701423,60.0267748 62.9761382,60.1667734 63.4521406,60.1667734 C63.8721427,60.1667734 64.2244725,60.080441 64.5091406,59.9077734 C64.7938087,59.7351059 65.0434729,59.5181081 65.2581406,59.2567734 L66.4621406,60.1667734 C66.0701387,60.6521092 65.6314764,60.9974391 65.1461406,61.2027734 C64.6608049,61.4081078 64.1521433,61.5107734 63.6201406,61.5107734 C63.1161381,61.5107734 62.6401429,61.4267743 62.1921406,61.2587734 C61.7441384,61.0907726 61.3568089,60.852775 61.0301406,60.5447734 C60.7034723,60.2367719 60.4444749,59.8657756 60.2531406,59.4317734 C60.0618063,58.9977713 59.9661406,58.5147761 59.9661406,57.9827734 C59.9661406,57.4507708 60.0618063,56.9677756 60.2531406,56.5337734 C60.4444749,56.0997713 60.7034723,55.728775 61.0301406,55.4207734 C61.3568089,55.1127719 61.7441384,54.8747743 62.1921406,54.7067734 C62.6401429,54.5387726 63.1161381,54.4547734 63.6201406,54.4547734 C64.0868096,54.4547734 64.5138054,54.5364393 64.9011406,54.6997734 C65.2884759,54.8631076 65.6198059,55.0987719 65.8951406,55.4067734 C66.1704753,55.714775 66.3851399,56.0951045 66.5391406,56.5477734 C66.6931414,57.0004424 66.7701406,57.5207705 66.7701406,58.1087734 L66.7701406,58.5707734 L61.6461406,58.5707734 Z M65.0901406,57.3107734 C65.0808072,56.8161043 64.9268088,56.4264415 64.6281406,56.1417734 C64.3294725,55.8571053 63.9141433,55.7147734 63.3821406,55.7147734 C62.8781381,55.7147734 62.4791421,55.8594387 62.1851406,56.1487734 C61.8911392,56.4381082 61.7114743,56.8254377 61.6461406,57.3107734 L65.0901406,57.3107734 Z M77.0741406,56.6387734 C76.8781396,56.4334391 76.6728084,56.2701074 76.4581406,56.1487734 C76.2434729,56.0274395 76.0241417,55.9667734 75.8001406,55.9667734 C75.4921391,55.9667734 75.2168085,56.0227729 74.9741406,56.1347734 C74.7314727,56.246774 74.5238082,56.3961058 74.3511406,56.5827734 C74.1784731,56.769441 74.0478077,56.9841056 73.9591406,57.2267734 C73.8704735,57.4694413 73.8261406,57.7214388 73.8261406,57.9827734 C73.8261406,58.2441081 73.8704735,58.4961056 73.9591406,58.7387734 C74.0478077,58.9814413 74.1784731,59.1961058 74.3511406,59.3827734 C74.5238082,59.569441 74.7314727,59.7187729 74.9741406,59.8307734 C75.2168085,59.942774 75.4921391,59.9987734 75.8001406,59.9987734 C76.0614753,59.9987734 76.3041395,59.9451073 76.5281406,59.8377734 C76.7521417,59.7304396 76.9434732,59.5741078 77.1021406,59.3687734 L78.2221406,60.5727734 C78.0541398,60.7407743 77.8604751,60.8854395 77.6411406,61.0067734 C77.4218062,61.1281074 77.2001417,61.2261064 76.9761406,61.3007734 C76.7521395,61.3754405 76.537475,61.4291066 76.3321406,61.4617734 C76.1268063,61.4944403 75.9494747,61.5107734 75.8001406,61.5107734 C75.2961381,61.5107734 74.8201429,61.4267743 74.3721406,61.2587734 C73.9241384,61.0907726 73.5368089,60.852775 73.2101406,60.5447734 C72.8834723,60.2367719 72.6244749,59.8657756 72.4331406,59.4317734 C72.2418063,58.9977713 72.1461406,58.5147761 72.1461406,57.9827734 C72.1461406,57.4507708 72.2418063,56.9677756 72.4331406,56.5337734 C72.6244749,56.0997713 72.8834723,55.728775 73.2101406,55.4207734 C73.5368089,55.1127719 73.9241384,54.8747743 74.3721406,54.7067734 C74.8201429,54.5387726 75.2961381,54.4547734 75.8001406,54.4547734 C76.2294761,54.4547734 76.6611385,54.5364393 77.0951406,54.6997734 C77.5291428,54.8631076 77.9094723,55.122105 78.2361406,55.4767734 L77.0741406,56.6387734 Z M79.2301406,54.6227734 L80.9101406,54.6227734 L80.9101406,55.6867734 L80.9381406,55.6867734 C81.1248082,55.2947715 81.3908056,54.9914412 81.7361406,54.7767734 C82.0814757,54.5621057 82.4781384,54.4547734 82.9261406,54.4547734 C83.0288078,54.4547734 83.1291401,54.4641067 83.2271406,54.4827734 C83.3251411,54.5014402 83.4254734,54.5247733 83.5281406,54.5527734 L83.5281406,56.1767734 C83.3881399,56.1394399 83.2504746,56.1091069 83.1151406,56.0857734 C82.9798066,56.06244 82.8468079,56.0507734 82.7161406,56.0507734 C82.3241387,56.0507734 82.0091418,56.123106 81.7711406,56.2677734 C81.5331394,56.4124408 81.3511413,56.5781058 81.2251406,56.7647734 C81.09914,56.951441 81.0151408,57.1381058 80.9731406,57.3247734 C80.9311404,57.511441 80.9101406,57.6514396 80.9101406,57.7447734 L80.9101406,61.3427734 L79.2301406,61.3427734 L79.2301406,54.6227734 Z M86.0201406,58.5707734 C86.0761409,59.074776 86.2721389,59.466772 86.6081406,59.7467734 C86.9441423,60.0267748 87.3501382,60.1667734 87.8261406,60.1667734 C88.2461427,60.1667734 88.5984725,60.080441 88.8831406,59.9077734 C89.1678087,59.7351059 89.4174729,59.5181081 89.6321406,59.2567734 L90.8361406,60.1667734 C90.4441387,60.6521092 90.0054764,60.9974391 89.5201406,61.2027734 C89.0348049,61.4081078 88.5261433,61.5107734 87.9941406,61.5107734 C87.4901381,61.5107734 87.0141429,61.4267743 86.5661406,61.2587734 C86.1181384,61.0907726 85.7308089,60.852775 85.4041406,60.5447734 C85.0774723,60.2367719 84.8184749,59.8657756 84.6271406,59.4317734 C84.4358063,58.9977713 84.3401406,58.5147761 84.3401406,57.9827734 C84.3401406,57.4507708 84.4358063,56.9677756 84.6271406,56.5337734 C84.8184749,56.0997713 85.0774723,55.728775 85.4041406,55.4207734 C85.7308089,55.1127719 86.1181384,54.8747743 86.5661406,54.7067734 C87.0141429,54.5387726 87.4901381,54.4547734 87.9941406,54.4547734 C88.4608096,54.4547734 88.8878054,54.5364393 89.2751406,54.6997734 C89.6624759,54.8631076 89.9938059,55.0987719 90.2691406,55.4067734 C90.5444753,55.714775 90.7591399,56.0951045 90.9131406,56.5477734 C91.0671414,57.0004424 91.1441406,57.5207705 91.1441406,58.1087734 L91.1441406,58.5707734 L86.0201406,58.5707734 Z M89.4641406,57.3107734 C89.4548072,56.8161043 89.3008088,56.4264415 89.0021406,56.1417734 C88.7034725,55.8571053 88.2881433,55.7147734 87.7561406,55.7147734 C87.2521381,55.7147734 86.8531421,55.8594387 86.5591406,56.1487734 C86.2651392,56.4381082 86.0854743,56.8254377 86.0201406,57.3107734 L89.4641406,57.3107734 Z M96.9121406,60.4187734 L96.8701406,60.4187734 C96.6274727,60.801442 96.3194758,61.0791059 95.9461406,61.2517734 C95.5728054,61.424441 95.1621429,61.5107734 94.7141406,61.5107734 C94.4061391,61.5107734 94.1051421,61.4687739 93.8111406,61.3847734 C93.5171392,61.300773 93.2558084,61.1747743 93.0271406,61.0067734 C92.7984728,60.8387726 92.6141413,60.6287747 92.4741406,60.3767734 C92.3341399,60.1247722 92.2641406,59.8307751 92.2641406,59.4947734 C92.2641406,59.1307716 92.3294733,58.8204414 92.4601406,58.5637734 C92.5908079,58.3071055 92.7658062,58.092441 92.9851406,57.9197734 C93.2044751,57.7471059 93.4588058,57.6094406 93.7481406,57.5067734 C94.0374754,57.4041063 94.3384724,57.327107 94.6511406,57.2757734 C94.9638089,57.2244398 95.2788057,57.1917735 95.5961406,57.1777734 C95.9134755,57.1637734 96.2121392,57.1567734 96.4921406,57.1567734 L96.9121406,57.1567734 L96.9121406,56.9747734 C96.9121406,56.5547713 96.7674754,56.2397745 96.4781406,56.0297734 C96.1888058,55.8197724 95.8201429,55.7147734 95.3721406,55.7147734 C95.0174722,55.7147734 94.6861422,55.7777728 94.3781406,55.9037734 C94.0701391,56.0297741 93.8041417,56.2001057 93.5801406,56.4147734 L92.6981406,55.5327734 C93.0714758,55.1501049 93.5078048,54.8747743 94.0071406,54.7067734 C94.5064765,54.5387726 95.022138,54.4547734 95.5541406,54.4547734 C96.030143,54.4547734 96.4314723,54.5084396 96.7581406,54.6157734 C97.0848089,54.7231073 97.3554729,54.8607726 97.5701406,55.0287734 C97.7848084,55.1967743 97.9504734,55.390439 98.0671406,55.6097734 C98.1838079,55.8291079 98.267807,56.0507723 98.3191406,56.2747734 C98.3704742,56.4987746 98.4008072,56.7157724 98.4101406,56.9257734 C98.419474,57.1357745 98.4241406,57.320106 98.4241406,57.4787734 L98.4241406,61.3427734 L96.9121406,61.3427734 L96.9121406,60.4187734 Z M96.8141406,58.3327734 L96.4641406,58.3327734 C96.2308061,58.3327734 95.9694754,58.3421067 95.6801406,58.3607734 C95.3908058,58.3794402 95.1178086,58.4237731 94.8611406,58.4937734 C94.6044727,58.5637738 94.3874748,58.6664394 94.2101406,58.8017734 C94.0328064,58.9371074 93.9441406,59.1261056 93.9441406,59.3687734 C93.9441406,59.5274409 93.9791403,59.6604396 94.0491406,59.7677734 C94.119141,59.8751073 94.2101401,59.9661064 94.3221406,60.0407734 C94.4341412,60.1154405 94.5601399,60.1691066 94.7001406,60.2017734 C94.8401413,60.2344403 94.9801399,60.2507734 95.1201406,60.2507734 C95.6988102,60.2507734 96.1258059,60.1131081 96.4011406,59.8377734 C96.6764753,59.5624387 96.8141406,59.1867758 96.8141406,58.7107734 L96.8141406,58.3327734 Z M99.4461406,56.0507734 L99.4461406,54.6227734 L100.832141,54.6227734 L100.832141,52.6767734 L102.512141,52.6767734 L102.512141,54.6227734 L104.360141,54.6227734 L104.360141,56.0507734 L102.512141,56.0507734 L102.512141,58.9907734 C102.512141,59.3267751 102.57514,59.5927725 102.701141,59.7887734 C102.827141,59.9847744 103.076805,60.0827734 103.450141,60.0827734 C103.599475,60.0827734 103.762806,60.0664403 103.940141,60.0337734 C104.117475,60.0011066 104.257473,59.9474405 104.360141,59.8727734 L104.360141,61.2867734 C104.182806,61.3707739 103.965809,61.4291066 103.709141,61.4617734 C103.452473,61.4944403 103.226142,61.5107734 103.030141,61.5107734 C102.582138,61.5107734 102.215809,61.4617739 101.931141,61.3637734 C101.646473,61.2657729 101.422475,61.1164411 101.259141,60.9157734 C101.095806,60.7151058 100.983808,60.4654416 100.923141,60.1667734 C100.862474,59.8681053 100.832141,59.5227754 100.832141,59.1307734 L100.832141,56.0507734 L99.4461406,56.0507734 Z M105.704141,54.6227734 L107.384141,54.6227734 L107.384141,61.3427734 L105.704141,61.3427734 L105.704141,54.6227734 Z M105.466141,52.3407734 C105.466141,52.0701054 105.566473,51.8344411 105.767141,51.6337734 C105.967808,51.4331058 106.222139,51.3327734 106.530141,51.3327734 C106.838142,51.3327734 107.09714,51.4284391 107.307141,51.6197734 C107.517142,51.8111077 107.622141,52.0514387 107.622141,52.3407734 C107.622141,52.6301082 107.517142,52.8704391 107.307141,53.0617734 C107.09714,53.2531077 106.838142,53.3487734 106.530141,53.3487734 C106.222139,53.3487734 105.967808,53.2484411 105.767141,53.0477734 C105.566473,52.8471058 105.466141,52.6114415 105.466141,52.3407734 Z M108.406141,54.6227734 L110.240141,54.6227734 L112.032141,59.3267734 L112.060141,59.3267734 L113.866141,54.6227734 L115.588141,54.6227734 L112.942141,61.3427734 L111.150141,61.3427734 L108.406141,54.6227734 Z M117.926141,58.5707734 C117.982141,59.074776 118.178139,59.466772 118.514141,59.7467734 C118.850142,60.0267748 119.256138,60.1667734 119.732141,60.1667734 C120.152143,60.1667734 120.504473,60.080441 120.789141,59.9077734 C121.073809,59.7351059 121.323473,59.5181081 121.538141,59.2567734 L122.742141,60.1667734 C122.350139,60.6521092 121.911476,60.9974391 121.426141,61.2027734 C120.940805,61.4081078 120.432143,61.5107734 119.900141,61.5107734 C119.396138,61.5107734 118.920143,61.4267743 118.472141,61.2587734 C118.024138,61.0907726 117.636809,60.852775 117.310141,60.5447734 C116.983472,60.2367719 116.724475,59.8657756 116.533141,59.4317734 C116.341806,58.9977713 116.246141,58.5147761 116.246141,57.9827734 C116.246141,57.4507708 116.341806,56.9677756 116.533141,56.5337734 C116.724475,56.0997713 116.983472,55.728775 117.310141,55.4207734 C117.636809,55.1127719 118.024138,54.8747743 118.472141,54.7067734 C118.920143,54.5387726 119.396138,54.4547734 119.900141,54.4547734 C120.36681,54.4547734 120.793805,54.5364393 121.181141,54.6997734 C121.568476,54.8631076 121.899806,55.0987719 122.175141,55.4067734 C122.450475,55.714775 122.66514,56.0951045 122.819141,56.5477734 C122.973141,57.0004424 123.050141,57.5207705 123.050141,58.1087734 L123.050141,58.5707734 L117.926141,58.5707734 Z M121.370141,57.3107734 C121.360807,56.8161043 121.206809,56.4264415 120.908141,56.1417734 C120.609472,55.8571053 120.194143,55.7147734 119.662141,55.7147734 C119.158138,55.7147734 118.759142,55.8594387 118.465141,56.1487734 C118.171139,56.4381082 117.991474,56.8254377 117.926141,57.3107734 L121.370141,57.3107734 Z"/>
    <filter id="design_portfolio-m" width="100.8%" height="107.2%" x="-.4%" y="-3.6%" filterUnits="objectBoundingBox">
      <feGaussianBlur in="SourceAlpha" result="shadowBlurInner1" stdDeviation=".5"/>
      <feOffset in="shadowBlurInner1" result="shadowOffsetInner1"/>
      <feComposite in="shadowOffsetInner1" in2="SourceAlpha" k2="-1" k3="1" operator="arithmetic" result="shadowInnerInner1"/>
      <feColorMatrix in="shadowInnerInner1" values="0 0 0 0 0   0 0 0 0 0   0 0 0 0 0  0 0 0 0.5 0"/>
    </filter>
  </defs>
  <g fill="none" fill-rule="evenodd">
    <mask id="design_portfolio-b" fill="#fff">
      <use xlink:href="#design_portfolio-a"/>
    </mask>
    <use fill="#D8D8D8" xlink:href="#design_portfolio-a"/>
    <g mask="url(#design_portfolio-b)">
      <g transform="translate(-194 -202)">
        <rect width="599.709" height="842" x="193" y="202" fill="#F6F3EA"/>
        <path stroke="#979797"/>
        <polygon fill="#A5A39E" points="193.027 394.16 414.306 394.16 414.306 1044 188.306 1044" opacity=".198"/>
        <g transform="translate(218 504)">
          <g transform="translate(1 395)">
            <rect width="70.517" height="1" x=".5" y="4" fill="#565354"/>
            <polygon fill="#FA705A" points="79.077 .899 83.43 .899 85.595 3.071 81.253 8.101 76.972 3.06"/>
          </g>
          <g transform="translate(0 165)">
            <rect width="70.502" height="1" x=".5" y="3.161" fill="#565354"/>
            <polygon fill="#FA705A" points="78.926 .072 83.28 .072 85.445 2.244 81.103 7.274 76.822 2.233"/>
          </g>
          <g transform="translate(8)">
            <text fill="#565354" font-family="SquareFont" font-size="32">
              <tspan x=".393" y="27.252">iAN Tran</tspan>  <tspan x=".393" y="69.252" font-family="Avenir-Book, Avenir" font-size="12">Tran Dien Han</tspan>
            </text>
            <g font-size="14" transform="translate(0 74.781)">
              <text fill="#565354" font-family="Avenir-Book, Avenir">
                <tspan x="0" y="14">(+84) 94 172 0075</tspan>
              </text>
              <text fill="#565354" font-family="Avenir-Book, Avenir">
                <tspan x="0" y="40.8">iant1359@gmail.com</tspan>
              </text>
              <text fill="#FA705A" font-family="Avenir-Heavy, Avenir" font-weight="600">
                <tspan x="0" y="67.6">www.iant1359.com</tspan>
              </text>
            </g>
          </g>
          <g transform="translate(9 188)">
            <text fill="#565354" font-family="Avenir-Book, Avenir" font-size="12">
              <tspan x=".258" y="39.84">I’m a junior UI/UX Designer </tspan> <tspan x=".258" y="57.84">and also a Ruby on Rails </tspan> <tspan x=".258" y="75.84">Developer. I extremely care </tspan> <tspan x=".258" y="93.84">about product and work hard </tspan> <tspan x=".258" y="111.84">everyday to make great ones.</tspan>  <tspan x=".258" y="147.84">I love music. I play </tspan> <tspan x=".258" y="165.84">harmonica, chess and read </tspan> <tspan x=".258" y="183.84">tech news in my free time.</tspan>
            </text>
            <text fill="#FA705A" font-family="Avenir-Heavy, Avenir" font-size="16" font-weight="600">
              <tspan x=".258" y="16.84">About me</tspan>
            </text>
          </g>
          <g transform="translate(8 419)">
            <text fill="#FA705A" font-family="Avenir-Heavy, Avenir" font-size="16" font-weight="600">
              <tspan x=".277" y="16.84">Referees</tspan>
            </text>
            <g transform="translate(.56 32.905)">
              <text font-family="Avenir-Heavy, Avenir" font-size="12" font-weight="600">
                <tspan x=".567" y="12" fill="#565354">M</tspan> <tspan x="11.679" y="12" fill="#555354">r</tspan> <tspan x="16.347" y="12" fill="#555354">.</tspan> <tspan x="19.899" y="12" fill="#555354"> </tspan> <tspan x="23.451" y="12" fill="#545354">H</tspan> <tspan x="32.343" y="12" fill="#545354">a</tspan> <tspan x="38.787" y="12" fill="#545354">r</tspan> <tspan x="43.455" y="12" fill="#545354">l</tspan> <tspan x="46.575" y="12" fill="#545354">e</tspan> <tspan x="53.463" y="12" fill="#545354">y</tspan> <tspan x="59.691" y="12" fill="#545455"> </tspan> <tspan x="63.243" y="12" fill="#545455">T</tspan> <tspan x="70.131" y="12" fill="#545455">r</tspan> <tspan x="74.799" y="12" fill="#545455">u</tspan> <tspan x="81.687" y="12" fill="#545455">n</tspan> <tspan x="88.575" y="12" fill="#545455">g </tspan> <tspan x="99.687" y="12" fill="#545455" font-family="Avenir-BookOblique, Avenir" font-size="10" font-style="italic" font-weight="normal">as Rails tutor</tspan>
              </text>
              <text fill="#565354" font-family="Avenir-Book, Avenir" font-size="10">
                <tspan x=".567" y="31.98">Founder of CoderSchool</tspan>
              </text>
              <text fill="#565354" font-family="Avenir-Book, Avenir" font-size="10">
                <tspan x=".567" y="64.98">(+84) 98 507 3237</tspan>
              </text>
              <text fill="#565354" font-family="Avenir-Book, Avenir" font-size="10">
                <tspan x=".567" y="48.48">harley@coderschool.vn</tspan>
              </text>
            </g>
          </g>
        </g>
        <circle cx="236.968" cy="240.632" r="236.642" fill="#A5A39E"/>
        <circle cx="220.663" cy="218.327" r="217.337" fill="#7D7B78"/>
        <circle cx="253.977" cy="254.761" r="125.336" fill="#565354"/>
        <g transform="translate(440 239)">
          <g transform="translate(118.338 .222)">
            <text fill="#565354" font-family="Avenir-Book, Avenir" font-size="14">
              <tspan x=".267" y="45.679">Please have a look at my </tspan> <tspan x=".267" y="65.679">projects on this webiste.</tspan>
            </text>
            <text fill="#FA705A" font-family="Avenir-Heavy, Avenir" font-size="18" font-weight="600">
              <tspan x=".267" y="18.679">PORTFOLIO</tspan>
            </text>
            <text fill="#565354" font-family="Avenir-Heavy, Avenir" font-size="14" font-weight="600">
              <tspan x=".267" y="95.679">www.iant1359.com</tspan>
            </text>
          </g>
          <g transform="translate(190 126.222)">
            <rect width="118.567" height="1" x="16.435" y="3.161" fill="#565354"/>
            <polygon fill="#FA705A" points="2.926 .072 7.28 .072 9.445 2.244 5.103 7.274 .822 2.233"/>
          </g>
          <g transform="translate(0 164)">
            <g transform="translate(12 506.5)">
              <text fill="#FA705A" font-family="Avenir-Heavy, Avenir" font-size="16" font-weight="600">
                <tspan x=".345" y="16">Education </tspan>
              </text>
              <g fill="#565354" transform="translate(.345 32)">
                <text font-family="Avenir-Heavy, Avenir" font-size="12" font-weight="600">
                  <tspan x=".652" y="12.755">Self-taught Design and CoderSchool Rails bootcamp</tspan>
                </text>
                <text font-family="Avenir-BookOblique, Avenir" font-size="10" font-style="italic">
                  <tspan x=".652" y="33.997">from 2016 to present</tspan>
                </text>
              </g>
              <g fill="#565354" transform="translate(0 75)">
                <text font-family="Avenir-BookOblique, Avenir" font-size="10" font-style="italic">
                  <tspan x=".172" y="33">from 2014 to 2016</tspan>
                </text>
                <text font-family="Avenir-Heavy, Avenir" font-size="12" font-weight="600">
                  <tspan x=".172" y="12">RMIT Vietnam University (Bachelor of Finance)</tspan>
                </text>
              </g>
            </g>
            <g transform="translate(8.5 483)">
              <rect width="70.502" height="1" x=".5" y="3.161" fill="#565354"/>
              <polygon fill="#FA705A" points="78.926 .072 83.28 .072 85.445 2.244 81.103 7.274 76.822 2.233"/>
            </g>
            <g transform="translate(5 125)">
              <rect width="70.502" height="1" x=".5" y="3.161" fill="#565354"/>
              <polygon fill="#FA705A" points="78.926 .072 83.28 .072 85.445 2.244 81.103 7.274 76.822 2.233"/>
            </g>
            <g transform="translate(5 256)">
              <rect width="70.502" height="1" x=".5" y="3.161" fill="#565354"/>
              <polygon fill="#FA705A" points="78.926 .072 83.28 .072 85.445 2.244 81.103 7.274 76.822 2.233"/>
            </g>
            <g transform="translate(12)">
              <text fill="#FA705A" font-family="Avenir-Heavy, Avenir" font-size="16" font-weight="600">
                <tspan x="0" y="16.733">Professional skills</tspan>
              </text>
              <text fill="#565354" font-family="Avenir-Book, Avenir" font-size="12">
                <tspan x="0" y="44.35"> • Familiar with SketchApp, Illustrator and Framer</tspan> <tspan x="0" y="62.35"> • Familiar with wire-framing and UI/UX design</tspan> <tspan x="0" y="80.35"> • Experience in mobile app and web design</tspan> <tspan x="0" y="98.35"> • Proficient in HTML, CSS and JavaScript</tspan>
              </text>
            </g>
            <g transform="translate(0 278)">
              <g transform="translate(12 .607)">
                <text fill="#FA705A" font-family="Avenir-Heavy, Avenir" font-size="16" font-weight="600">
                  <tspan x="0" y="16">Personal skills</tspan>
                </text>
                <text fill="#565354" font-family="Avenir-Book, Avenir" font-size="12">
                  <tspan x="0" y="43.607"> • Proficient in English to work well with foreigners</tspan> <tspan x="0" y="61.607"> • Excellent at Communication and Presentation</tspan>  <tspan x="0" y="79.607"> • Dealing flexibly with changes and is willing to </tspan> <tspan x="36" y="97.607">rebuild things</tspan> <tspan x="0" y="115.607"> • Handle extremely high pressure</tspan> <tspan x="0" y="133.607"> • Work well with data to extract useful information</tspan>
                </text>
              </g>
              <text fill="#FA705A" font-family="Avenir-Medium, Avenir" font-size="12" font-weight="400">
                <tspan x=".433" y="163.236">“ Having multiple backgrounds of Business, Design and </tspan> <tspan x=".433" y="181.236">Technology allows me to evaluate products critically.”</tspan>
              </text>
            </g>
            <g transform="translate(12 147)">
              <text fill="#FA705A" font-family="Avenir-Heavy, Avenir" font-size="16" font-weight="600">
                <tspan x="0" y="16">Tools and Software</tspan>
              </text>
              <g transform="translate(12 39)">
                <path fill="#565354" d="M4.334,1.996 C4.2139994,1.82199913 4.053501,1.69450041 3.8525,1.6135 C3.65149899,1.5324996 3.44000111,1.492 3.218,1.492 C3.08599934,1.492 2.95850061,1.50699985 2.8355,1.537 C2.71249938,1.56700015 2.60150049,1.61499967 2.5025,1.681 C2.4034995,1.74700033 2.3240003,1.83249948 2.264,1.9375 C2.2039997,2.04250053 2.174,2.16699928 2.174,2.311 C2.174,2.52700108 2.24899925,2.69199943 2.399,2.806 C2.54900075,2.92000057 2.73499889,3.01899958 2.957,3.103 C3.17900111,3.18700042 3.42199868,3.26799961 3.686,3.346 C3.95000132,3.42400039 4.19299889,3.53199931 4.415,3.67 C4.63700111,3.80800069 4.82299925,3.99099886 4.973,4.219 C5.12300075,4.44700114 5.198,4.74999811 5.198,5.128 C5.198,5.47000171 5.13500063,5.76849873 5.009,6.0235 C4.88299937,6.27850128 4.71350106,6.48999916 4.5005,6.658 C4.28749893,6.82600084 4.04000141,6.95199958 3.758,7.036 C3.47599859,7.12000042 3.17900156,7.162 2.867,7.162 C2.47099802,7.162 2.09000183,7.09600066 1.724,6.964 C1.35799817,6.83199934 1.04300132,6.61000156 0.779,6.298 L1.634,5.47 C1.77200069,5.68000105 1.95349887,5.84349942 2.1785,5.9605 C2.40350112,6.07750059 2.64199874,6.136 2.894,6.136 C3.02600066,6.136 3.15799934,6.11800018 3.29,6.082 C3.42200066,6.04599982 3.54199946,5.99200036 3.65,5.92 C3.75800054,5.84799964 3.84499967,5.75650056 3.911,5.6455 C3.97700033,5.53449945 4.01,5.40700072 4.01,5.263 C4.01,5.02899883 3.93500075,4.84900063 3.785,4.723 C3.63499925,4.59699937 3.44900111,4.49050044 3.227,4.4035 C3.00499889,4.31649957 2.76200132,4.23400039 2.498,4.156 C2.23399868,4.07799961 1.99100111,3.97150068 1.769,3.8365 C1.54699889,3.70149933 1.36100075,3.52150113 1.211,3.2965 C1.06099925,3.07149888 0.986,2.77000189 0.986,2.392 C0.986,2.06199835 1.05349932,1.7770012 1.1885,1.537 C1.32350067,1.2969988 1.5004989,1.0975008 1.7195,0.9385 C1.93850109,0.779499205 2.18899859,0.66100039 2.471,0.583 C2.75300141,0.50499961 3.04099853,0.466 3.335,0.466 C3.67100168,0.466 3.99649842,0.51699949 4.3115,0.619 C4.62650157,0.72100051 4.90999874,0.88899883 5.162,1.123 L4.334,1.996 Z M6.278,0.196 L7.358,0.196 L7.358,4.471 L9.023,2.68 L10.409,2.68 L8.555,4.642 L10.526,7 L9.095,7 L7.376,4.795 L7.358,4.795 L7.358,7 L6.278,7 L6.278,0.196 Z M11.975,5.218 C12.0110002,5.54200162 12.1369989,5.7939991 12.353,5.974 C12.5690011,6.1540009 12.8299985,6.244 13.136,6.244 C13.4060013,6.244 13.6324991,6.18850056 13.8155,6.0775 C13.9985009,5.96649945 14.1589993,5.82700084 14.297,5.659 L15.071,6.244 C14.8189987,6.55600156 14.5370016,6.77799934 14.225,6.91 C13.9129984,7.04200066 13.5860017,7.108 13.244,7.108 C12.9199984,7.108 12.6140014,7.05400054 12.326,6.946 C12.0379986,6.83799946 11.789001,6.68500099 11.579,6.487 C11.3689989,6.28899901 11.2025006,6.0505014 11.0795,5.7715 C10.9564994,5.49249861 10.895,5.18200171 10.895,4.84 C10.895,4.49799829 10.9564994,4.1875014 11.0795,3.9085 C11.2025006,3.62949861 11.3689989,3.39100099 11.579,3.193 C11.789001,2.99499901 12.0379986,2.84200054 12.326,2.734 C12.6140014,2.62599946 12.9199984,2.572 13.244,2.572 C13.5440015,2.572 13.8184988,2.62449948 14.0675,2.7295 C14.3165012,2.83450053 14.5294991,2.98599901 14.7065,3.184 C14.8835009,3.38200099 15.0214995,3.62649855 15.1205,3.9175 C15.2195005,4.20850146 15.269,4.54299811 15.269,4.921 L15.269,5.218 L11.975,5.218 Z M14.189,4.408 C14.183,4.08999841 14.084001,3.83950092 13.892,3.6565 C13.699999,3.47349909 13.4330017,3.382 13.091,3.382 C12.7669984,3.382 12.5105009,3.47499907 12.3215,3.661 C12.1324991,3.84700093 12.0170002,4.09599844 11.975,4.408 L14.189,4.408 Z M15.773,3.598 L15.773,2.68 L16.664,2.68 L16.664,1.429 L17.744,1.429 L17.744,2.68 L18.932,2.68 L18.932,3.598 L17.744,3.598 L17.744,5.488 C17.744,5.70400108 17.7844996,5.87499937 17.8655,6.001 C17.9465004,6.12700063 18.1069988,6.19 18.347,6.19 C18.4430005,6.19 18.5479994,6.17950011 18.662,6.1585 C18.7760006,6.1374999 18.8659997,6.10300024 18.932,6.055 L18.932,6.964 C18.8179994,7.01800027 18.6785008,7.0554999 18.5135,7.0765 C18.3484992,7.09750011 18.2030006,7.108 18.077,7.108 C17.7889986,7.108 17.5535009,7.07650032 17.3705,7.0135 C17.1874991,6.95049969 17.0435005,6.85450065 16.9385,6.7255 C16.8334995,6.59649936 16.7615002,6.43600096 16.7225,6.244 C16.6834998,6.05199904 16.664,5.83000126 16.664,5.578 L16.664,3.598 L15.773,3.598 Z M22.73,3.976 C22.6039994,3.84399934 22.4720007,3.73900039 22.334,3.661 C22.1959993,3.58299961 22.0550007,3.544 21.911,3.544 C21.712999,3.544 21.5360008,3.57999964 21.38,3.652 C21.2239992,3.72400036 21.0905006,3.8199994 20.9795,3.94 C20.8684994,4.0600006 20.7845003,4.19799922 20.7275,4.354 C20.6704997,4.51000078 20.642,4.67199916 20.642,4.84 C20.642,5.00800084 20.6704997,5.16999922 20.7275,5.326 C20.7845003,5.48200078 20.8684994,5.6199994 20.9795,5.74 C21.0905006,5.8600006 21.2239992,5.95599964 21.38,6.028 C21.5360008,6.10000036 21.712999,6.136 21.911,6.136 C22.0790008,6.136 22.2349993,6.10150035 22.379,6.0325 C22.5230007,5.96349966 22.6459995,5.86300066 22.748,5.731 L23.468,6.505 C23.3599995,6.61300054 23.2355007,6.70599961 23.0945,6.784 C22.9534993,6.86200039 22.8110007,6.92499976 22.667,6.973 C22.5229993,7.02100024 22.3850007,7.0554999 22.253,7.0765 C22.1209993,7.09750011 22.0070005,7.108 21.911,7.108 C21.5869984,7.108 21.2810014,7.05400054 20.993,6.946 C20.7049986,6.83799946 20.456001,6.68500099 20.246,6.487 C20.0359989,6.28899901 19.8695006,6.0505014 19.7465,5.7715 C19.6234994,5.49249861 19.562,5.18200171 19.562,4.84 C19.562,4.49799829 19.6234994,4.1875014 19.7465,3.9085 C19.8695006,3.62949861 20.0359989,3.39100099 20.246,3.193 C20.456001,2.99499901 20.7049986,2.84200054 20.993,2.734 C21.2810014,2.62599946 21.5869984,2.572 21.911,2.572 C22.1870014,2.572 22.4644986,2.62449948 22.7435,2.7295 C23.0225014,2.83450053 23.2669989,3.00099886 23.477,3.229 L22.73,3.976 Z M25.196,3.283 L25.214,3.283 C25.2980004,3.1029991 25.4464989,2.93950074 25.6595,2.7925 C25.8725011,2.64549927 26.1469983,2.572 26.483,2.572 C26.7710014,2.572 27.015499,2.61999952 27.2165,2.716 C27.417501,2.81200048 27.5809994,2.93799922 27.707,3.094 C27.8330006,3.25000078 27.9229997,3.42999898 27.977,3.634 C28.0310003,3.83800102 28.058,4.05099889 28.058,4.273 L28.058,7 L26.978,7 L26.978,4.813 C26.978,4.6929994 26.9720001,4.55950074 26.96,4.4125 C26.9479999,4.26549927 26.9165003,4.12750065 26.8655,3.9985 C26.8144997,3.86949936 26.7350005,3.76150044 26.627,3.6745 C26.5189995,3.58749957 26.3720009,3.544 26.186,3.544 C26.0059991,3.544 25.8545006,3.5739997 25.7315,3.634 C25.6084994,3.6940003 25.5065004,3.77499949 25.4255,3.877 C25.3444996,3.97900051 25.2860002,4.09599934 25.25,4.228 C25.2139998,4.36000066 25.196,4.49799928 25.196,4.642 L25.196,7 L24.116,7 L24.116,0.196 L25.196,0.196 L25.196,3.283 Z M31.442,0.628 L32.423,0.628 L35.168,7 L33.872,7 L33.278,5.542 L30.515,5.542 L29.939,7 L28.67,7 L31.442,0.628 Z M32.882,4.57 L31.901,1.978 L30.902,4.57 L32.882,4.57 Z M35.78,2.68 L36.806,2.68 L36.806,3.328 L36.824,3.328 C36.9800008,3.06399868 37.1899987,2.8720006 37.454,2.752 C37.7180013,2.6319994 38.0029985,2.572 38.309,2.572 C38.6390016,2.572 38.9359987,2.63049942 39.2,2.7475 C39.4640013,2.86450059 39.6889991,3.02499898 39.875,3.229 C40.0610009,3.43300102 40.2019995,3.67299862 40.298,3.949 C40.3940005,4.22500138 40.442,4.52199841 40.442,4.84 C40.442,5.15800159 40.3910005,5.45499862 40.289,5.731 C40.1869995,6.00700138 40.0445009,6.24699898 39.8615,6.451 C39.6784991,6.65500102 39.4580013,6.81549942 39.2,6.9325 C38.9419987,7.04950059 38.6600015,7.108 38.354,7.108 C38.149999,7.108 37.9700008,7.08700021 37.814,7.045 C37.6579992,7.00299979 37.5200006,6.94900033 37.4,6.883 C37.2799994,6.81699967 37.1780004,6.74650038 37.094,6.6715 C37.0099996,6.59649963 36.9410003,6.52300036 36.887,6.451 L36.86,6.451 L36.86,9.052 L35.78,9.052 L35.78,2.68 Z M39.362,4.84 C39.362,4.67199916 39.3335003,4.51000078 39.2765,4.354 C39.2194997,4.19799922 39.1355006,4.0600006 39.0245,3.94 C38.9134994,3.8199994 38.7800008,3.72400036 38.624,3.652 C38.4679992,3.57999964 38.291001,3.544 38.093,3.544 C37.894999,3.544 37.7180008,3.57999964 37.562,3.652 C37.4059992,3.72400036 37.2725006,3.8199994 37.1615,3.94 C37.0504994,4.0600006 36.9665003,4.19799922 36.9095,4.354 C36.8524997,4.51000078 36.824,4.67199916 36.824,4.84 C36.824,5.00800084 36.8524997,5.16999922 36.9095,5.326 C36.9665003,5.48200078 37.0504994,5.6199994 37.1615,5.74 C37.2725006,5.8600006 37.4059992,5.95599964 37.562,6.028 C37.7180008,6.10000036 37.894999,6.136 38.093,6.136 C38.291001,6.136 38.4679992,6.10000036 38.624,6.028 C38.7800008,5.95599964 38.9134994,5.8600006 39.0245,5.74 C39.1355006,5.6199994 39.2194997,5.48200078 39.2765,5.326 C39.3335003,5.16999922 39.362,5.00800084 39.362,4.84 Z M41.45,2.68 L42.476,2.68 L42.476,3.328 L42.494,3.328 C42.6500008,3.06399868 42.8599987,2.8720006 43.124,2.752 C43.3880013,2.6319994 43.6729985,2.572 43.979,2.572 C44.3090016,2.572 44.6059987,2.63049942 44.87,2.7475 C45.1340013,2.86450059 45.3589991,3.02499898 45.545,3.229 C45.7310009,3.43300102 45.8719995,3.67299862 45.968,3.949 C46.0640005,4.22500138 46.112,4.52199841 46.112,4.84 C46.112,5.15800159 46.0610005,5.45499862 45.959,5.731 C45.8569995,6.00700138 45.7145009,6.24699898 45.5315,6.451 C45.3484991,6.65500102 45.1280013,6.81549942 44.87,6.9325 C44.6119987,7.04950059 44.3300015,7.108 44.024,7.108 C43.819999,7.108 43.6400008,7.08700021 43.484,7.045 C43.3279992,7.00299979 43.1900006,6.94900033 43.07,6.883 C42.9499994,6.81699967 42.8480004,6.74650038 42.764,6.6715 C42.6799996,6.59649963 42.6110003,6.52300036 42.557,6.451 L42.53,6.451 L42.53,9.052 L41.45,9.052 L41.45,2.68 Z M45.032,4.84 C45.032,4.67199916 45.0035003,4.51000078 44.9465,4.354 C44.8894997,4.19799922 44.8055006,4.0600006 44.6945,3.94 C44.5834994,3.8199994 44.4500008,3.72400036 44.294,3.652 C44.1379992,3.57999964 43.961001,3.544 43.763,3.544 C43.564999,3.544 43.3880008,3.57999964 43.232,3.652 C43.0759992,3.72400036 42.9425006,3.8199994 42.8315,3.94 C42.7204994,4.0600006 42.6365003,4.19799922 42.5795,4.354 C42.5224997,4.51000078 42.494,4.67199916 42.494,4.84 C42.494,5.00800084 42.5224997,5.16999922 42.5795,5.326 C42.6365003,5.48200078 42.7204994,5.6199994 42.8315,5.74 C42.9425006,5.8600006 43.0759992,5.95599964 43.232,6.028 C43.3880008,6.10000036 43.564999,6.136 43.763,6.136 C43.961001,6.136 44.1379992,6.10000036 44.294,6.028 C44.4500008,5.95599964 44.5834994,5.8600006 44.6945,5.74 C44.8055006,5.6199994 44.8894997,5.48200078 44.9465,5.326 C45.0035003,5.16999922 45.032,5.00800084 45.032,4.84 Z"/>
                <g transform="translate(63.599 2.624)">
                  <rect width="55" height="4" x=".599" y=".54" stroke="#565354" rx="2"/>
                  <rect width="47.718" height="5" x=".099" y=".04" fill="#565354" rx="2.5"/>
                </g>
                <g transform="translate(162 1)">
                  <path fill="#565354" d="M0.315,5.974 L3.717,1.654 L0.369,1.654 L0.369,0.628 L5.13,0.628 L5.13,1.654 L1.701,5.974 L5.184,5.974 L5.184,7 L0.315,7 L0.315,5.974 Z M6.975,5.218 C7.01100018,5.54200162 7.13699892,5.7939991 7.353,5.974 C7.56900108,6.1540009 7.82999847,6.244 8.136,6.244 C8.40600135,6.244 8.63249909,6.18850056 8.8155,6.0775 C8.99850092,5.96649945 9.15899931,5.82700084 9.297,5.659 L10.071,6.244 C9.81899874,6.55600156 9.53700156,6.77799934 9.225,6.91 C8.91299844,7.04200066 8.58600171,7.108 8.244,7.108 C7.91999838,7.108 7.61400144,7.05400054 7.326,6.946 C7.03799856,6.83799946 6.78900105,6.68500099 6.579,6.487 C6.36899895,6.28899901 6.20250062,6.0505014 6.0795,5.7715 C5.95649939,5.49249861 5.895,5.18200171 5.895,4.84 C5.895,4.49799829 5.95649939,4.1875014 6.0795,3.9085 C6.20250062,3.62949861 6.36899895,3.39100099 6.579,3.193 C6.78900105,2.99499901 7.03799856,2.84200054 7.326,2.734 C7.61400144,2.62599946 7.91999838,2.572 8.244,2.572 C8.5440015,2.572 8.81849876,2.62449948 9.0675,2.7295 C9.31650125,2.83450053 9.52949912,2.98599901 9.7065,3.184 C9.88350089,3.38200099 10.0214995,3.62649855 10.1205,3.9175 C10.2195005,4.20850146 10.269,4.54299811 10.269,4.921 L10.269,5.218 L6.975,5.218 Z M9.189,4.408 C9.18299997,4.08999841 9.08400096,3.83950092 8.892,3.6565 C8.69999904,3.47349909 8.43300171,3.382 8.091,3.382 C7.76699838,3.382 7.51050095,3.47499907 7.3215,3.661 C7.13249906,3.84700093 7.01700021,4.09599844 6.975,4.408 L9.189,4.408 Z M11.277,2.68 L12.303,2.68 L12.303,3.328 L12.321,3.328 C12.4770008,3.06399868 12.6869987,2.8720006 12.951,2.752 C13.2150013,2.6319994 13.4999985,2.572 13.806,2.572 C14.1360017,2.572 14.4329987,2.63049942 14.697,2.7475 C14.9610013,2.86450059 15.1859991,3.02499898 15.372,3.229 C15.5580009,3.43300102 15.6989995,3.67299862 15.795,3.949 C15.8910005,4.22500138 15.939,4.52199841 15.939,4.84 C15.939,5.15800159 15.8880005,5.45499862 15.786,5.731 C15.6839995,6.00700138 15.5415009,6.24699898 15.3585,6.451 C15.1754991,6.65500102 14.9550013,6.81549942 14.697,6.9325 C14.4389987,7.04950059 14.1570015,7.108 13.851,7.108 C13.646999,7.108 13.4670008,7.08700021 13.311,7.045 C13.1549992,7.00299979 13.0170006,6.94900033 12.897,6.883 C12.7769994,6.81699967 12.6750004,6.74650038 12.591,6.6715 C12.5069996,6.59649963 12.4380003,6.52300036 12.384,6.451 L12.357,6.451 L12.357,9.052 L11.277,9.052 L11.277,2.68 Z M14.859,4.84 C14.859,4.67199916 14.8305003,4.51000078 14.7735,4.354 C14.7164997,4.19799922 14.6325006,4.0600006 14.5215,3.94 C14.4104994,3.8199994 14.2770008,3.72400036 14.121,3.652 C13.9649992,3.57999964 13.788001,3.544 13.59,3.544 C13.391999,3.544 13.2150008,3.57999964 13.059,3.652 C12.9029992,3.72400036 12.7695006,3.8199994 12.6585,3.94 C12.5474994,4.0600006 12.4635003,4.19799922 12.4065,4.354 C12.3494997,4.51000078 12.321,4.67199916 12.321,4.84 C12.321,5.00800084 12.3494997,5.16999922 12.4065,5.326 C12.4635003,5.48200078 12.5474994,5.6199994 12.6585,5.74 C12.7695006,5.8600006 12.9029992,5.95599964 13.059,6.028 C13.2150008,6.10000036 13.391999,6.136 13.59,6.136 C13.788001,6.136 13.9649992,6.10000036 14.121,6.028 C14.2770008,5.95599964 14.4104994,5.8600006 14.5215,5.74 C14.6325006,5.6199994 14.7164997,5.48200078 14.7735,5.326 C14.8305003,5.16999922 14.859,5.00800084 14.859,4.84 Z M16.965,0.196 L18.045,0.196 L18.045,7 L16.965,7 L16.965,0.196 Z M19.305,2.68 L20.385,2.68 L20.385,7 L19.305,7 L19.305,2.68 Z M19.152,1.213 C19.152,1.03899913 19.2164994,0.887500645 19.3455,0.7585 C19.4745006,0.629499355 19.637999,0.565 19.836,0.565 C20.034001,0.565 20.2004993,0.626499385 20.3355,0.7495 C20.4705007,0.872500615 20.538,1.02699907 20.538,1.213 C20.538,1.39900093 20.4705007,1.55349939 20.3355,1.6765 C20.2004993,1.79950062 20.034001,1.861 19.836,1.861 C19.637999,1.861 19.4745006,1.79650065 19.3455,1.6675 C19.2164994,1.53849936 19.152,1.38700087 19.152,1.213 Z M21.627,2.68 L22.653,2.68 L22.653,3.373 L22.671,3.373 C22.7730005,3.15699892 22.928999,2.9695008 23.139,2.8105 C23.3490011,2.65149921 23.6339982,2.572 23.994,2.572 C24.2820014,2.572 24.526499,2.61999952 24.7275,2.716 C24.928501,2.81200048 25.0919994,2.93799922 25.218,3.094 C25.3440006,3.25000078 25.4339997,3.42999898 25.488,3.634 C25.5420003,3.83800102 25.569,4.05099889 25.569,4.273 L25.569,7 L24.489,7 L24.489,4.813 C24.489,4.6929994 24.4830001,4.55950074 24.471,4.4125 C24.4589999,4.26549927 24.4275003,4.12750065 24.3765,3.9985 C24.3254997,3.86949936 24.2460005,3.76150044 24.138,3.6745 C24.0299995,3.58749957 23.8830009,3.544 23.697,3.544 C23.5169991,3.544 23.3655006,3.5739997 23.2425,3.634 C23.1194994,3.6940003 23.0175004,3.77499949 22.9365,3.877 C22.8554996,3.97900051 22.7970002,4.09599934 22.761,4.228 C22.7249998,4.36000066 22.707,4.49799928 22.707,4.642 L22.707,7 L21.627,7 L21.627,2.68 Z"/>
                  <g transform="translate(68.854 1.624)">
                    <rect width="55" height="4" x=".599" y=".54" stroke="#565354" rx="2"/>
                    <use fill="#565354" xlink:href="#design_portfolio-c"/>
                    <rect width="27" height="4" x=".599" y=".54" stroke="#565354" rx="2"/>
                  </g>
                </g>
                <g transform="translate(162 22)">
                  <path fill="#565354" d="M0.684,0.128 L1.818,0.128 L1.818,6.5 L0.684,6.5 L0.684,0.128 Z M3.114,2.18 L4.14,2.18 L4.14,2.873 L4.158,2.873 C4.26000051,2.65699892 4.41599895,2.4695008 4.626,2.3105 C4.83600105,2.15149921 5.1209982,2.072 5.481,2.072 C5.76900144,2.072 6.013499,2.11999952 6.2145,2.216 C6.41550101,2.31200048 6.57899937,2.43799922 6.705,2.594 C6.83100063,2.75000078 6.92099973,2.92999898 6.975,3.134 C7.02900027,3.33800102 7.056,3.55099889 7.056,3.773 L7.056,6.5 L5.976,6.5 L5.976,4.313 C5.976,4.1929994 5.97000006,4.05950074 5.958,3.9125 C5.94599994,3.76549927 5.91450026,3.62750065 5.8635,3.4985 C5.81249975,3.36949936 5.73300054,3.26150044 5.625,3.1745 C5.51699946,3.08749957 5.37000093,3.044 5.184,3.044 C5.0039991,3.044 4.85250062,3.0739997 4.7295,3.134 C4.60649939,3.1940003 4.50450041,3.27499949 4.4235,3.377 C4.3424996,3.47900051 4.28400018,3.59599934 4.248,3.728 C4.21199982,3.86000066 4.194,3.99799928 4.194,4.142 L4.194,6.5 L3.114,6.5 L3.114,2.18 Z M7.695,2.18 L8.874,2.18 L10.026,5.204 L10.044,5.204 L11.205,2.18 L12.312,2.18 L10.611,6.5 L9.459,6.5 L7.695,2.18 Z M12.969,2.18 L14.049,2.18 L14.049,6.5 L12.969,6.5 L12.969,2.18 Z M12.816,0.713 C12.816,0.53899913 12.8804994,0.387500645 13.0095,0.2585 C13.1385006,0.129499355 13.301999,0.065 13.5,0.065 C13.698001,0.065 13.8644993,0.126499385 13.9995,0.2495 C14.1345007,0.372500615 14.202,0.52699907 14.202,0.713 C14.202,0.89900093 14.1345007,1.05349939 13.9995,1.1765 C13.8644993,1.29950062 13.698001,1.361 13.5,1.361 C13.301999,1.361 13.1385006,1.29650065 13.0095,1.1675 C12.8804994,1.03849936 12.816,0.88700087 12.816,0.713 Z M17.595,3.377 C17.384999,3.08299853 17.1030018,2.936 16.749,2.936 C16.6049993,2.936 16.4640007,2.97199964 16.326,3.044 C16.1879993,3.11600036 16.119,3.23299919 16.119,3.395 C16.119,3.52700066 16.1759994,3.6229997 16.29,3.683 C16.4040006,3.7430003 16.5479991,3.79399979 16.722,3.836 C16.8960009,3.87800021 17.083499,3.92149978 17.2845,3.9665 C17.485501,4.01150023 17.6729991,4.08049954 17.847,4.1735 C18.0210009,4.26650047 18.1649994,4.39399919 18.279,4.556 C18.3930006,4.71800081 18.45,4.93999859 18.45,5.222 C18.45,5.48000129 18.3945006,5.69749912 18.2835,5.8745 C18.1724994,6.05150089 18.0285009,6.19399946 17.8515,6.302 C17.6744991,6.41000054 17.4750011,6.48799976 17.253,6.536 C17.0309989,6.58400024 16.8090011,6.608 16.587,6.608 C16.2509983,6.608 15.9420014,6.56000048 15.66,6.464 C15.3779986,6.36799952 15.1260011,6.19400126 14.904,5.942 L15.624,5.267 C15.7620007,5.42300078 15.9104992,5.55049951 16.0695,5.6495 C16.2285008,5.7485005 16.4219989,5.798 16.65,5.798 C16.7280004,5.798 16.8089996,5.78900009 16.893,5.771 C16.9770004,5.75299991 17.0549996,5.72300021 17.127,5.681 C17.1990004,5.63899979 17.2574998,5.58650032 17.3025,5.5235 C17.3475002,5.46049969 17.37,5.38700042 17.37,5.303 C17.37,5.15299925 17.3130006,5.04200036 17.199,4.97 C17.0849994,4.89799964 16.9410009,4.83950023 16.767,4.7945 C16.5929991,4.74949978 16.405501,4.7075002 16.2045,4.6685 C16.003499,4.62949981 15.8160009,4.56650044 15.642,4.4795 C15.4679991,4.39249957 15.3240006,4.27100078 15.21,4.115 C15.0959994,3.95899922 15.039,3.74300138 15.039,3.467 C15.039,3.2269988 15.0884995,3.01850089 15.1875,2.8415 C15.2865005,2.66449912 15.4169992,2.51900057 15.579,2.405 C15.7410008,2.29099943 15.926999,2.20700027 16.137,2.153 C16.3470011,2.09899973 16.5599989,2.072 16.776,2.072 C17.0640014,2.072 17.3489986,2.12149951 17.631,2.2205 C17.9130014,2.3195005 18.1409991,2.4889988 18.315,2.729 L17.595,3.377 Z M19.305,2.18 L20.385,2.18 L20.385,6.5 L19.305,6.5 L19.305,2.18 Z M19.152,0.713 C19.152,0.53899913 19.2164994,0.387500645 19.3455,0.2585 C19.4745006,0.129499355 19.637999,0.065 19.836,0.065 C20.034001,0.065 20.2004993,0.126499385 20.3355,0.2495 C20.4705007,0.372500615 20.538,0.52699907 20.538,0.713 C20.538,0.89900093 20.4705007,1.05349939 20.3355,1.1765 C20.2004993,1.29950062 20.034001,1.361 19.836,1.361 C19.637999,1.361 19.4745006,1.29650065 19.3455,1.1675 C19.2164994,1.03849936 19.152,0.88700087 19.152,0.713 Z M21.411,4.34 C21.411,3.99799829 21.4724994,3.6875014 21.5955,3.4085 C21.7185006,3.12949861 21.884999,2.89100099 22.095,2.693 C22.3050011,2.49499901 22.5539986,2.34200054 22.842,2.234 C23.1300014,2.12599946 23.4359984,2.072 23.76,2.072 C24.0840016,2.072 24.3899986,2.12599946 24.678,2.234 C24.9660014,2.34200054 25.214999,2.49499901 25.425,2.693 C25.6350011,2.89100099 25.8014994,3.12949861 25.9245,3.4085 C26.0475006,3.6875014 26.109,3.99799829 26.109,4.34 C26.109,4.68200171 26.0475006,4.99249861 25.9245,5.2715 C25.8014994,5.5505014 25.6350011,5.78899901 25.425,5.987 C25.214999,6.18500099 24.9660014,6.33799946 24.678,6.446 C24.3899986,6.55400054 24.0840016,6.608 23.76,6.608 C23.4359984,6.608 23.1300014,6.55400054 22.842,6.446 C22.5539986,6.33799946 22.3050011,6.18500099 22.095,5.987 C21.884999,5.78899901 21.7185006,5.5505014 21.5955,5.2715 C21.4724994,4.99249861 21.411,4.68200171 21.411,4.34 Z M22.491,4.34 C22.491,4.50800084 22.5194997,4.66999922 22.5765,4.826 C22.6335003,4.98200078 22.7174994,5.1199994 22.8285,5.24 C22.9395006,5.3600006 23.0729992,5.45599964 23.229,5.528 C23.3850008,5.60000036 23.561999,5.636 23.76,5.636 C23.958001,5.636 24.1349992,5.60000036 24.291,5.528 C24.4470008,5.45599964 24.5804994,5.3600006 24.6915,5.24 C24.8025006,5.1199994 24.8864997,4.98200078 24.9435,4.826 C25.0005003,4.66999922 25.029,4.50800084 25.029,4.34 C25.029,4.17199916 25.0005003,4.01000078 24.9435,3.854 C24.8864997,3.69799922 24.8025006,3.5600006 24.6915,3.44 C24.5804994,3.3199994 24.4470008,3.22400036 24.291,3.152 C24.1349992,3.07999964 23.958001,3.044 23.76,3.044 C23.561999,3.044 23.3850008,3.07999964 23.229,3.152 C23.0729992,3.22400036 22.9395006,3.3199994 22.8285,3.44 C22.7174994,3.5600006 22.6335003,3.69799922 22.5765,3.854 C22.5194997,4.01000078 22.491,4.17199916 22.491,4.34 Z M27.117,2.18 L28.143,2.18 L28.143,2.873 L28.161,2.873 C28.2630005,2.65699892 28.418999,2.4695008 28.629,2.3105 C28.8390011,2.15149921 29.1239982,2.072 29.484,2.072 C29.7720014,2.072 30.016499,2.11999952 30.2175,2.216 C30.418501,2.31200048 30.5819994,2.43799922 30.708,2.594 C30.8340006,2.75000078 30.9239997,2.92999898 30.978,3.134 C31.0320003,3.33800102 31.059,3.55099889 31.059,3.773 L31.059,6.5 L29.979,6.5 L29.979,4.313 C29.979,4.1929994 29.9730001,4.05950074 29.961,3.9125 C29.9489999,3.76549927 29.9175003,3.62750065 29.8665,3.4985 C29.8154997,3.36949936 29.7360005,3.26150044 29.628,3.1745 C29.5199995,3.08749957 29.3730009,3.044 29.187,3.044 C29.0069991,3.044 28.8555006,3.0739997 28.7325,3.134 C28.6094994,3.1940003 28.5075004,3.27499949 28.4265,3.377 C28.3454996,3.47900051 28.2870002,3.59599934 28.251,3.728 C28.2149998,3.86000066 28.197,3.99799928 28.197,4.142 L28.197,6.5 L27.117,6.5 L27.117,2.18 Z"/>
                  <g transform="translate(68 1.322)">
                    <rect width="55" height="4" x="1.453" y="1.179" stroke="#565354" rx="2"/>
                    <use fill="#565354" xlink:href="#design_portfolio-d"/>
                    <rect width="27" height="4" x="1.453" y="1.179" stroke="#565354" rx="2"/>
                  </g>
                </g>
                <g transform="translate(162 42)">
                  <path fill="#565354" d="M6.372,6.532 C5.58599607,6.9520021 4.70700486,7.162 3.735,7.162 C3.24299754,7.162 2.79150206,7.0825008 2.3805,6.9235 C1.96949795,6.76449921 1.61550149,6.53950146 1.3185,6.2485 C1.02149852,5.95749855 0.78900084,5.60800204 0.621,5.2 C0.45299916,4.79199796 0.369,4.33900249 0.369,3.841 C0.369,3.33099745 0.45299916,2.86750209 0.621,2.4505 C0.78900084,2.03349792 1.02149852,1.67800147 1.3185,1.384 C1.61550149,1.08999853 1.96949795,0.863500795 2.3805,0.7045 C2.79150206,0.545499205 3.24299754,0.466 3.735,0.466 C4.22100243,0.466 4.67699787,0.524499415 5.103,0.6415 C5.52900213,0.758500585 5.90999832,0.9669985 6.246,1.267 L5.409,2.113 C5.20499898,1.91499901 4.95750146,1.76200054 4.6665,1.654 C4.37549855,1.54599946 4.06800162,1.492 3.744,1.492 C3.41399835,1.492 3.11550134,1.55049942 2.8485,1.6675 C2.58149867,1.78450059 2.35200096,1.94649897 2.16,2.1535 C1.96799904,2.36050104 1.81950053,2.60199862 1.7145,2.878 C1.60949948,3.15400138 1.557,3.45099841 1.557,3.769 C1.557,4.11100171 1.60949948,4.42599856 1.7145,4.714 C1.81950053,5.00200144 1.96799904,5.25099895 2.16,5.461 C2.35200096,5.67100105 2.58149867,5.8359994 2.8485,5.956 C3.11550134,6.0760006 3.41399835,6.136 3.744,6.136 C4.03200144,6.136 4.30349873,6.10900027 4.5585,6.055 C4.81350128,6.00099973 5.03999901,5.91700057 5.238,5.803 L5.238,4.3 L3.933,4.3 L3.933,3.274 L6.372,3.274 L6.372,6.532 Z M7.632,2.68 L8.712,2.68 L8.712,7 L7.632,7 L7.632,2.68 Z M7.479,1.213 C7.479,1.03899913 7.54349936,0.887500645 7.6725,0.7585 C7.80150065,0.629499355 7.96499901,0.565 8.163,0.565 C8.36100099,0.565 8.52749933,0.626499385 8.6625,0.7495 C8.79750068,0.872500615 8.865,1.02699907 8.865,1.213 C8.865,1.39900093 8.79750068,1.55349939 8.6625,1.6765 C8.52749933,1.79950062 8.36100099,1.861 8.163,1.861 C7.96499901,1.861 7.80150065,1.79650065 7.6725,1.6675 C7.54349936,1.53849936 7.479,1.38700087 7.479,1.213 Z M9.45,3.598 L9.45,2.68 L10.341,2.68 L10.341,1.429 L11.421,1.429 L11.421,2.68 L12.609,2.68 L12.609,3.598 L11.421,3.598 L11.421,5.488 C11.421,5.70400108 11.4614996,5.87499937 11.5425,6.001 C11.6235004,6.12700063 11.7839988,6.19 12.024,6.19 C12.1200005,6.19 12.2249994,6.17950011 12.339,6.1585 C12.4530006,6.1374999 12.5429997,6.10300024 12.609,6.055 L12.609,6.964 C12.4949994,7.01800027 12.3555008,7.0554999 12.1905,7.0765 C12.0254992,7.09750011 11.8800006,7.108 11.754,7.108 C11.4659986,7.108 11.2305009,7.07650032 11.0475,7.0135 C10.8644991,6.95049969 10.7205005,6.85450065 10.6155,6.7255 C10.5104995,6.59649936 10.4385002,6.43600096 10.3995,6.244 C10.3604998,6.05199904 10.341,5.83000126 10.341,5.578 L10.341,3.598 L9.45,3.598 Z M20.673,5.497 L22.05,7 L20.655,7 L19.98,6.271 C19.7219987,6.57700153 19.4460015,6.80199928 19.152,6.946 C18.8579985,7.09000072 18.507002,7.162 18.099,7.162 C17.8169986,7.162 17.5455013,7.12150041 17.2845,7.0405 C17.0234987,6.9594996 16.794001,6.8395008 16.596,6.6805 C16.397999,6.52149921 16.2390006,6.32650116 16.119,6.0955 C15.9989994,5.86449885 15.939,5.59600153 15.939,5.29 C15.939,5.07399892 15.9749996,4.87450092 16.047,4.6915 C16.1190004,4.50849909 16.2164994,4.34050077 16.3395,4.1875 C16.4625006,4.03449924 16.6079992,3.89950059 16.776,3.7825 C16.9440008,3.66549942 17.123999,3.57100036 17.316,3.499 C17.2139995,3.38499943 17.1195004,3.27400054 17.0325,3.166 C16.9454996,3.05799946 16.8690003,2.94700057 16.803,2.833 C16.7369997,2.71899943 16.6845002,2.59600066 16.6455,2.464 C16.6064998,2.33199934 16.587,2.18800078 16.587,2.032 C16.587,1.77399871 16.6364995,1.54600099 16.7355,1.348 C16.8345005,1.14999901 16.9679992,0.986500645 17.136,0.8575 C17.3040008,0.728499355 17.4989989,0.63100033 17.721,0.565 C17.9430011,0.49899967 18.1739988,0.466 18.414,0.466 C18.6540012,0.466 18.8819989,0.4959997 19.098,0.556 C19.3140011,0.6160003 19.5044992,0.707499385 19.6695,0.8305 C19.8345008,0.953500615 19.9664995,1.11099904 20.0655,1.303 C20.1645005,1.49500096 20.214,1.71999871 20.214,1.978 C20.214,2.17600099 20.1780004,2.35749918 20.106,2.5225 C20.0339996,2.68750083 19.9380006,2.83749933 19.818,2.9725 C19.6979994,3.10750068 19.5615008,3.23049945 19.4085,3.3415 C19.2554992,3.45250056 19.1010008,3.54699961 18.945,3.625 L19.971,4.732 L20.682,3.652 L21.951,3.652 L20.673,5.497 Z M18.432,1.438 C18.221999,1.438 18.0420008,1.49649942 17.892,1.6135 C17.7419993,1.73050059 17.667,1.88499904 17.667,2.077 C17.667,2.16100042 17.6849998,2.2434996 17.721,2.3245 C17.7570002,2.40550041 17.8049997,2.4864996 17.865,2.5675 C17.9250003,2.64850041 17.9894997,2.72499964 18.0585,2.797 C18.1275003,2.86900036 18.1979996,2.93799967 18.27,3.004 C18.3600005,2.95599976 18.4559995,2.90050032 18.558,2.8375 C18.6600005,2.77449969 18.7544996,2.70250041 18.8415,2.6215 C18.9285004,2.5404996 18.9989997,2.45200048 19.053,2.356 C19.1070003,2.25999952 19.134,2.1520006 19.134,2.032 C19.134,1.85799913 19.0650007,1.71550056 18.927,1.6045 C18.7889993,1.49349945 18.624001,1.438 18.432,1.438 Z M18,4.138 C17.8919995,4.20400033 17.7870005,4.27149966 17.685,4.3405 C17.5829995,4.40950035 17.4900004,4.48599958 17.406,4.57 C17.3219996,4.65400042 17.2545003,4.74999946 17.2035,4.858 C17.1524997,4.96600054 17.127,5.08899931 17.127,5.227 C17.127,5.36500069 17.1539997,5.4939994 17.208,5.614 C17.2620003,5.7340006 17.3354995,5.83599958 17.4285,5.92 C17.5215005,6.00400042 17.6279994,6.06999976 17.748,6.118 C17.8680006,6.16600024 17.9969993,6.19 18.135,6.19 C18.3810012,6.19 18.5969991,6.12400066 18.783,5.992 C18.9690009,5.85999934 19.1429992,5.71600078 19.305,5.56 L18,4.138 Z M31.212,6.532 C30.4259961,6.9520021 29.5470049,7.162 28.575,7.162 C28.0829975,7.162 27.6315021,7.0825008 27.2205,6.9235 C26.8094979,6.76449921 26.4555015,6.53950146 26.1585,6.2485 C25.8614985,5.95749855 25.6290008,5.60800204 25.461,5.2 C25.2929992,4.79199796 25.209,4.33900249 25.209,3.841 C25.209,3.33099745 25.2929992,2.86750209 25.461,2.4505 C25.6290008,2.03349792 25.8614985,1.67800147 26.1585,1.384 C26.4555015,1.08999853 26.8094979,0.863500795 27.2205,0.7045 C27.6315021,0.545499205 28.0829975,0.466 28.575,0.466 C29.0610024,0.466 29.5169979,0.524499415 29.943,0.6415 C30.3690021,0.758500585 30.7499983,0.9669985 31.086,1.267 L30.249,2.113 C30.044999,1.91499901 29.7975015,1.76200054 29.5065,1.654 C29.2154985,1.54599946 28.9080016,1.492 28.584,1.492 C28.2539984,1.492 27.9555013,1.55049942 27.6885,1.6675 C27.4214987,1.78450059 27.192001,1.94649897 27,2.1535 C26.807999,2.36050104 26.6595005,2.60199862 26.5545,2.878 C26.4494995,3.15400138 26.397,3.45099841 26.397,3.769 C26.397,4.11100171 26.4494995,4.42599856 26.5545,4.714 C26.6595005,5.00200144 26.807999,5.25099895 27,5.461 C27.192001,5.67100105 27.4214987,5.8359994 27.6885,5.956 C27.9555013,6.0760006 28.2539984,6.136 28.584,6.136 C28.8720014,6.136 29.1434987,6.10900027 29.3985,6.055 C29.6535013,6.00099973 29.879999,5.91700057 30.078,5.803 L30.078,4.3 L28.773,4.3 L28.773,3.274 L31.212,3.274 L31.212,6.532 Z M32.472,2.68 L33.552,2.68 L33.552,7 L32.472,7 L32.472,2.68 Z M32.319,1.213 C32.319,1.03899913 32.3834994,0.887500645 32.5125,0.7585 C32.6415006,0.629499355 32.804999,0.565 33.003,0.565 C33.201001,0.565 33.3674993,0.626499385 33.5025,0.7495 C33.6375007,0.872500615 33.705,1.02699907 33.705,1.213 C33.705,1.39900093 33.6375007,1.55349939 33.5025,1.6765 C33.3674993,1.79950062 33.201001,1.861 33.003,1.861 C32.804999,1.861 32.6415006,1.79650065 32.5125,1.6675 C32.3834994,1.53849936 32.319,1.38700087 32.319,1.213 Z M34.29,3.598 L34.29,2.68 L35.181,2.68 L35.181,1.429 L36.261,1.429 L36.261,2.68 L37.449,2.68 L37.449,3.598 L36.261,3.598 L36.261,5.488 C36.261,5.70400108 36.3014996,5.87499937 36.3825,6.001 C36.4635004,6.12700063 36.6239988,6.19 36.864,6.19 C36.9600005,6.19 37.0649994,6.17950011 37.179,6.1585 C37.2930006,6.1374999 37.3829997,6.10300024 37.449,6.055 L37.449,6.964 C37.3349994,7.01800027 37.1955008,7.0554999 37.0305,7.0765 C36.8654992,7.09750011 36.7200006,7.108 36.594,7.108 C36.3059986,7.108 36.0705009,7.07650032 35.8875,7.0135 C35.7044991,6.95049969 35.5605005,6.85450065 35.4555,6.7255 C35.3504995,6.59649936 35.2785002,6.43600096 35.2395,6.244 C35.2004998,6.05199904 35.181,5.83000126 35.181,5.578 L35.181,3.598 L34.29,3.598 Z M38.394,0.628 L39.528,0.628 L39.528,3.166 L42.507,3.166 L42.507,0.628 L43.641,0.628 L43.641,7 L42.507,7 L42.507,4.192 L39.528,4.192 L39.528,7 L38.394,7 L38.394,0.628 Z M48.906,7 L47.88,7 L47.88,6.307 L47.862,6.307 C47.7599995,6.52300108 47.6040011,6.71049921 47.394,6.8695 C47.183999,7.0285008 46.8990018,7.108 46.539,7.108 C46.2509986,7.108 46.006501,7.06150047 45.8055,6.9685 C45.604499,6.87549954 45.4410006,6.7495008 45.315,6.5905 C45.1889994,6.43149921 45.0990003,6.25000102 45.045,6.046 C44.9909997,5.84199898 44.964,5.62900111 44.964,5.407 L44.964,2.68 L46.044,2.68 L46.044,4.867 C46.044,4.9870006 46.0499999,5.12049927 46.062,5.2675 C46.0740001,5.41450074 46.1054997,5.55249936 46.1565,5.6815 C46.2075003,5.81050065 46.2854995,5.91849957 46.3905,6.0055 C46.4955005,6.09250044 46.643999,6.136 46.836,6.136 C47.0160009,6.136 47.1674994,6.1060003 47.2905,6.046 C47.4135006,5.9859997 47.5154996,5.90500051 47.5965,5.803 C47.6775004,5.70099949 47.7359998,5.58400066 47.772,5.452 C47.8080002,5.31999934 47.826,5.18200072 47.826,5.038 L47.826,2.68 L48.906,2.68 L48.906,7 Z M50.13,0.196 L51.21,0.196 L51.21,3.229 L51.237,3.229 C51.2910003,3.15699964 51.3599996,3.08350038 51.444,3.0085 C51.5280004,2.93349963 51.6299994,2.86300033 51.75,2.797 C51.8700006,2.73099967 52.0079992,2.67700021 52.164,2.635 C52.3200008,2.59299979 52.499999,2.572 52.704,2.572 C53.0100015,2.572 53.2919987,2.63049942 53.55,2.7475 C53.8080013,2.86450059 54.0284991,3.02499898 54.2115,3.229 C54.3945009,3.43300102 54.5369995,3.67299862 54.639,3.949 C54.7410005,4.22500138 54.792,4.52199841 54.792,4.84 C54.792,5.15800159 54.7440005,5.45499862 54.648,5.731 C54.5519995,6.00700138 54.4110009,6.24699898 54.225,6.451 C54.0389991,6.65500102 53.8140013,6.81549942 53.55,6.9325 C53.2859987,7.04950059 52.9890017,7.108 52.659,7.108 C52.3529985,7.108 52.0680013,7.0480006 51.804,6.928 C51.5399987,6.8079994 51.3300008,6.61600132 51.174,6.352 L51.156,6.352 L51.156,7 L50.13,7 L50.13,0.196 Z M53.712,4.84 C53.712,4.67199916 53.6835003,4.51000078 53.6265,4.354 C53.5694997,4.19799922 53.4855006,4.0600006 53.3745,3.94 C53.2634994,3.8199994 53.1300008,3.72400036 52.974,3.652 C52.8179992,3.57999964 52.641001,3.544 52.443,3.544 C52.244999,3.544 52.0680008,3.57999964 51.912,3.652 C51.7559992,3.72400036 51.6225006,3.8199994 51.5115,3.94 C51.4004994,4.0600006 51.3165003,4.19799922 51.2595,4.354 C51.2024997,4.51000078 51.174,4.67199916 51.174,4.84 C51.174,5.00800084 51.2024997,5.16999922 51.2595,5.326 C51.3165003,5.48200078 51.4004994,5.6199994 51.5115,5.74 C51.6225006,5.8600006 51.7559992,5.95599964 51.912,6.028 C52.0680008,6.10000036 52.244999,6.136 52.443,6.136 C52.641001,6.136 52.8179992,6.10000036 52.974,6.028 C53.1300008,5.95599964 53.2634994,5.8600006 53.3745,5.74 C53.4855006,5.6199994 53.5694997,5.48200078 53.6265,5.326 C53.6835003,5.16999922 53.712,5.00800084 53.712,4.84 Z"/>
                  <g transform="translate(68 1.832)">
                    <rect width="55" height="4" x="1.453" y="1.179" stroke="#565354" rx="2"/>
                    <use fill="#565354" xlink:href="#design_portfolio-e"/>
                    <rect width="47.603" height="4" x="1.453" y="1.179" stroke="#565354" rx="2"/>
                  </g>
                </g>
                <g transform="translate(1 21)">
                  <path fill="#565354" d="M0.211,0.884 L4.324,0.884 L4.324,1.91 L1.345,1.91 L1.345,3.584 L4.153,3.584 L4.153,4.61 L1.345,4.61 L1.345,7.256 L0.211,7.256 L0.211,0.884 Z M5.278,2.936 L6.358,2.936 L6.358,3.62 L6.376,3.62 C6.4960006,3.36799874 6.66699889,3.17300069 6.889,3.035 C7.11100111,2.89699931 7.36599856,2.828 7.654,2.828 C7.72000033,2.828 7.78449969,2.83399994 7.8475,2.846 C7.91050032,2.85800006 7.97499967,2.87299991 8.041,2.891 L8.041,3.935 C7.95099955,3.91099988 7.86250044,3.89150008 7.7755,3.8765 C7.68849957,3.86149993 7.60300042,3.854 7.519,3.854 C7.26699874,3.854 7.06450077,3.90049954 6.9115,3.9935 C6.75849924,4.08650047 6.64150041,4.1929994 6.5605,4.313 C6.4794996,4.4330006 6.42550014,4.5529994 6.3985,4.673 C6.37149987,4.7930006 6.358,4.8829997 6.358,4.943 L6.358,7.256 L5.278,7.256 L5.278,2.936 Z M11.479,6.662 L11.452,6.662 C11.2959992,6.90800123 11.0980012,7.08649945 10.858,7.1975 C10.6179988,7.30850056 10.3540014,7.364 10.066,7.364 C9.86799901,7.364 9.67450095,7.33700027 9.4855,7.283 C9.29649906,7.22899973 9.12850074,7.14800054 8.9815,7.04 C8.83449927,6.93199946 8.71600045,6.79700081 8.626,6.635 C8.53599955,6.47299919 8.491,6.28400108 8.491,6.068 C8.491,5.83399883 8.53299958,5.63450083 8.617,5.4695 C8.70100042,5.30449918 8.8134993,5.16650056 8.9545,5.0555 C9.09550071,4.94449945 9.25899907,4.85600033 9.445,4.79 C9.63100093,4.72399967 9.824499,4.67450017 10.0255,4.6415 C10.226501,4.60849984 10.428999,4.58750005 10.633,4.5785 C10.837001,4.56949996 11.0289991,4.565 11.209,4.565 L11.479,4.565 L11.479,4.448 C11.479,4.17799865 11.3860009,3.97550068 11.2,3.8405 C11.0139991,3.70549933 10.7770014,3.638 10.489,3.638 C10.2609989,3.638 10.048001,3.6784996 9.85,3.7595 C9.65199901,3.84050041 9.48100072,3.94999931 9.337,4.088 L8.77,3.521 C9.0100012,3.27499877 9.2904984,3.09800054 9.6115,2.99 C9.93250161,2.88199946 10.2639983,2.828 10.606,2.828 C10.9120015,2.828 11.169999,2.86249966 11.38,2.9315 C11.5900011,3.00050035 11.7639993,3.08899946 11.902,3.197 C12.0400007,3.30500054 12.1464996,3.4294993 12.2215,3.5705 C12.2965004,3.71150071 12.3504998,3.85399928 12.3835,3.998 C12.4165002,4.14200072 12.436,4.28149933 12.442,4.4165 C12.448,4.55150068 12.451,4.66999949 12.451,4.772 L12.451,7.256 L11.479,7.256 L11.479,6.662 Z M11.416,5.321 L11.191,5.321 C11.0409993,5.321 10.8730009,5.32699994 10.687,5.339 C10.5009991,5.35100006 10.3255008,5.37949978 10.1605,5.4245 C9.99549918,5.46950023 9.85600057,5.53549957 9.742,5.6225 C9.62799943,5.70950044 9.571,5.83099922 9.571,5.987 C9.571,6.08900051 9.59349978,6.17449966 9.6385,6.2435 C9.68350023,6.31250035 9.74199964,6.37099976 9.814,6.419 C9.88600036,6.46700024 9.96699955,6.5014999 10.057,6.5225 C10.1470005,6.54350011 10.2369996,6.554 10.327,6.554 C10.6990019,6.554 10.9734991,6.46550089 11.1505,6.2885 C11.3275009,6.11149912 11.416,5.87000153 11.416,5.564 L11.416,5.321 Z M13.567,2.936 L14.593,2.936 L14.593,3.611 L14.611,3.611 C14.7070005,3.40699898 14.8614989,3.2255008 15.0745,3.0665 C15.2875011,2.90749921 15.5739982,2.828 15.934,2.828 C16.6120034,2.828 17.0619989,3.09499733 17.284,3.629 C17.4400008,3.35299862 17.6349988,3.15050065 17.869,3.0215 C18.1030012,2.89249936 18.3819984,2.828 18.706,2.828 C18.9940014,2.828 19.236999,2.87599952 19.435,2.972 C19.633001,3.06800048 19.7934994,3.19999916 19.9165,3.368 C20.0395006,3.53600084 20.1279997,3.73249888 20.182,3.9575 C20.2360003,4.18250113 20.263,4.42399871 20.263,4.682 L20.263,7.256 L19.183,7.256 L19.183,4.808 C19.183,4.67599934 19.1710001,4.54850062 19.147,4.4255 C19.1229999,4.30249939 19.0810003,4.19450047 19.021,4.1015 C18.9609997,4.00849954 18.8800005,3.93500027 18.778,3.881 C18.6759995,3.82699973 18.5440008,3.8 18.382,3.8 C18.2139992,3.8 18.0715006,3.83149969 17.9545,3.8945 C17.8374994,3.95750032 17.7415004,4.04149948 17.6665,4.1465 C17.5914996,4.25150053 17.5375002,4.37149933 17.5045,4.5065 C17.4714998,4.64150068 17.455,4.77799931 17.455,4.916 L17.455,7.256 L16.375,7.256 L16.375,4.682 C16.375,4.41199865 16.3180006,4.1975008 16.204,4.0385 C16.0899994,3.87949921 15.9010013,3.8 15.637,3.8 C15.4569991,3.8 15.3055006,3.8299997 15.1825,3.89 C15.0594994,3.9500003 14.9575004,4.03099949 14.8765,4.133 C14.7954996,4.23500051 14.7370002,4.35199934 14.701,4.484 C14.6649998,4.61600066 14.647,4.75399928 14.647,4.898 L14.647,7.256 L13.567,7.256 L13.567,2.936 Z M22.306,5.474 C22.3420002,5.79800162 22.4679989,6.0499991 22.684,6.23 C22.9000011,6.4100009 23.1609985,6.5 23.467,6.5 C23.7370014,6.5 23.9634991,6.44450056 24.1465,6.3335 C24.3295009,6.22249945 24.4899993,6.08300084 24.628,5.915 L25.402,6.5 C25.1499987,6.81200156 24.8680016,7.03399934 24.556,7.166 C24.2439984,7.29800066 23.9170017,7.364 23.575,7.364 C23.2509984,7.364 22.9450014,7.31000054 22.657,7.202 C22.3689986,7.09399946 22.1200011,6.94100099 21.91,6.743 C21.699999,6.54499901 21.5335006,6.3065014 21.4105,6.0275 C21.2874994,5.74849861 21.226,5.43800171 21.226,5.096 C21.226,4.75399829 21.2874994,4.4435014 21.4105,4.1645 C21.5335006,3.88549861 21.699999,3.64700099 21.91,3.449 C22.1200011,3.25099901 22.3689986,3.09800054 22.657,2.99 C22.9450014,2.88199946 23.2509984,2.828 23.575,2.828 C23.8750015,2.828 24.1494988,2.88049948 24.3985,2.9855 C24.6475012,3.09050053 24.8604991,3.24199901 25.0375,3.44 C25.2145009,3.63800099 25.3524995,3.88249855 25.4515,4.1735 C25.5505005,4.46450146 25.6,4.79899811 25.6,5.177 L25.6,5.474 L22.306,5.474 Z M24.52,4.664 C24.514,4.34599841 24.415001,4.09550092 24.223,3.9125 C24.030999,3.72949909 23.7640017,3.638 23.422,3.638 C23.0979984,3.638 22.8415009,3.73099907 22.6525,3.917 C22.4634991,4.10300093 22.3480002,4.35199844 22.306,4.664 L24.52,4.664 Z M26.608,2.936 L27.688,2.936 L27.688,3.62 L27.706,3.62 C27.8260006,3.36799874 27.9969989,3.17300069 28.219,3.035 C28.4410011,2.89699931 28.6959986,2.828 28.984,2.828 C29.0500003,2.828 29.1144997,2.83399994 29.1775,2.846 C29.2405003,2.85800006 29.3049997,2.87299991 29.371,2.891 L29.371,3.935 C29.2809996,3.91099988 29.1925004,3.89150008 29.1055,3.8765 C29.0184996,3.86149993 28.9330004,3.854 28.849,3.854 C28.5969987,3.854 28.3945008,3.90049954 28.2415,3.9935 C28.0884992,4.08650047 27.9715004,4.1929994 27.8905,4.313 C27.8094996,4.4330006 27.7555001,4.5529994 27.7285,4.673 C27.7014999,4.7930006 27.688,4.8829997 27.688,4.943 L27.688,7.256 L26.608,7.256 L26.608,2.936 Z"/>
                  <g transform="translate(62.599 2.322)">
                    <rect width="55" height="4" x=".599" y=".54" stroke="#565354" rx="2"/>
                    <use fill="#565354" xlink:href="#design_portfolio-f"/>
                    <rect width="27" height="4" x=".599" y=".54" stroke="#565354" rx="2"/>
                  </g>
                </g>
                <g transform="translate(1 41)">
                  <path fill="#565354" d="M0.184,0.628 L1.318,0.628 L1.318,7 L0.184,7 L0.184,0.628 Z M2.632,0.196 L3.712,0.196 L3.712,7 L2.632,7 L2.632,0.196 Z M4.972,0.196 L6.052,0.196 L6.052,7 L4.972,7 L4.972,0.196 Z M11.236,7 L10.21,7 L10.21,6.307 L10.192,6.307 C10.0899995,6.52300108 9.93400105,6.71049921 9.724,6.8695 C9.51399895,7.0285008 9.2290018,7.108 8.869,7.108 C8.58099856,7.108 8.33650101,7.06150047 8.1355,6.9685 C7.934499,6.87549954 7.77100063,6.7495008 7.645,6.5905 C7.51899937,6.43149921 7.42900027,6.25000102 7.375,6.046 C7.32099973,5.84199898 7.294,5.62900111 7.294,5.407 L7.294,2.68 L8.374,2.68 L8.374,4.867 C8.374,4.9870006 8.37999994,5.12049927 8.392,5.2675 C8.40400006,5.41450074 8.43549975,5.55249936 8.4865,5.6815 C8.53750026,5.81050065 8.61549948,5.91849957 8.7205,6.0055 C8.82550053,6.09250044 8.97399904,6.136 9.166,6.136 C9.3460009,6.136 9.49749939,6.1060003 9.6205,6.046 C9.74350062,5.9859997 9.8454996,5.90500051 9.9265,5.803 C10.0075004,5.70099949 10.0659998,5.58400066 10.102,5.452 C10.1380002,5.31999934 10.156,5.18200072 10.156,5.038 L10.156,2.68 L11.236,2.68 L11.236,7 Z M14.764,3.877 C14.553999,3.58299853 14.2720018,3.436 13.918,3.436 C13.7739993,3.436 13.6330007,3.47199964 13.495,3.544 C13.3569993,3.61600036 13.288,3.73299919 13.288,3.895 C13.288,4.02700066 13.3449994,4.1229997 13.459,4.183 C13.5730006,4.2430003 13.7169991,4.29399979 13.891,4.336 C14.0650009,4.37800021 14.252499,4.42149978 14.4535,4.4665 C14.654501,4.51150023 14.8419991,4.58049954 15.016,4.6735 C15.1900009,4.76650047 15.3339994,4.89399919 15.448,5.056 C15.5620006,5.21800081 15.619,5.43999859 15.619,5.722 C15.619,5.98000129 15.5635006,6.19749912 15.4525,6.3745 C15.3414994,6.55150089 15.1975009,6.69399946 15.0205,6.802 C14.8434991,6.91000054 14.6440011,6.98799976 14.422,7.036 C14.1999989,7.08400024 13.9780011,7.108 13.756,7.108 C13.4199983,7.108 13.1110014,7.06000048 12.829,6.964 C12.5469986,6.86799952 12.2950011,6.69400126 12.073,6.442 L12.793,5.767 C12.9310007,5.92300078 13.0794992,6.05049951 13.2385,6.1495 C13.3975008,6.2485005 13.5909989,6.298 13.819,6.298 C13.8970004,6.298 13.9779996,6.28900009 14.062,6.271 C14.1460004,6.25299991 14.2239996,6.22300021 14.296,6.181 C14.3680004,6.13899979 14.4264998,6.08650032 14.4715,6.0235 C14.5165002,5.96049969 14.539,5.88700042 14.539,5.803 C14.539,5.65299925 14.4820006,5.54200036 14.368,5.47 C14.2539994,5.39799964 14.1100009,5.33950023 13.936,5.2945 C13.7619991,5.24949978 13.574501,5.2075002 13.3735,5.1685 C13.172499,5.12949981 12.9850009,5.06650044 12.811,4.9795 C12.6369991,4.89249957 12.4930006,4.77100078 12.379,4.615 C12.2649994,4.45899922 12.208,4.24300138 12.208,3.967 C12.208,3.7269988 12.2574995,3.51850089 12.3565,3.3415 C12.4555005,3.16449912 12.5859992,3.01900057 12.748,2.905 C12.9100008,2.79099943 13.095999,2.70700027 13.306,2.653 C13.5160011,2.59899973 13.7289989,2.572 13.945,2.572 C14.2330014,2.572 14.5179986,2.62149951 14.8,2.7205 C15.0820014,2.8195005 15.3099991,2.9889988 15.484,3.229 L14.764,3.877 Z M15.952,3.598 L15.952,2.68 L16.843,2.68 L16.843,1.429 L17.923,1.429 L17.923,2.68 L19.111,2.68 L19.111,3.598 L17.923,3.598 L17.923,5.488 C17.923,5.70400108 17.9634996,5.87499937 18.0445,6.001 C18.1255004,6.12700063 18.2859988,6.19 18.526,6.19 C18.6220005,6.19 18.7269994,6.17950011 18.841,6.1585 C18.9550006,6.1374999 19.0449997,6.10300024 19.111,6.055 L19.111,6.964 C18.9969994,7.01800027 18.8575008,7.0554999 18.6925,7.0765 C18.5274992,7.09750011 18.3820006,7.108 18.256,7.108 C17.9679986,7.108 17.7325009,7.07650032 17.5495,7.0135 C17.3664991,6.95049969 17.2225005,6.85450065 17.1175,6.7255 C17.0124995,6.59649936 16.9405002,6.43600096 16.9015,6.244 C16.8624998,6.05199904 16.843,5.83000126 16.843,5.578 L16.843,3.598 L15.952,3.598 Z M19.957,2.68 L21.037,2.68 L21.037,3.364 L21.055,3.364 C21.1750006,3.11199874 21.3459989,2.91700069 21.568,2.779 C21.7900011,2.64099931 22.0449986,2.572 22.333,2.572 C22.3990003,2.572 22.4634997,2.57799994 22.5265,2.59 C22.5895003,2.60200006 22.6539997,2.61699991 22.72,2.635 L22.72,3.679 C22.6299996,3.65499988 22.5415004,3.63550008 22.4545,3.6205 C22.3674996,3.60549993 22.2820004,3.598 22.198,3.598 C21.9459987,3.598 21.7435008,3.64449954 21.5905,3.7375 C21.4374992,3.83050047 21.3205004,3.9369994 21.2395,4.057 C21.1584996,4.1770006 21.1045001,4.2969994 21.0775,4.417 C21.0504999,4.5370006 21.037,4.6269997 21.037,4.687 L21.037,7 L19.957,7 L19.957,2.68 Z M26.158,6.406 L26.131,6.406 C25.9749992,6.65200123 25.7770012,6.83049945 25.537,6.9415 C25.2969988,7.05250056 25.0330014,7.108 24.745,7.108 C24.546999,7.108 24.3535009,7.08100027 24.1645,7.027 C23.9754991,6.97299973 23.8075007,6.89200054 23.6605,6.784 C23.5134993,6.67599946 23.3950005,6.54100081 23.305,6.379 C23.2149996,6.21699919 23.17,6.02800108 23.17,5.812 C23.17,5.57799883 23.2119996,5.37850083 23.296,5.2135 C23.3800004,5.04849918 23.4924993,4.91050056 23.6335,4.7995 C23.7745007,4.68849945 23.9379991,4.60000033 24.124,4.534 C24.3100009,4.46799967 24.503499,4.41850017 24.7045,4.3855 C24.905501,4.35249984 25.107999,4.33150005 25.312,4.3225 C25.516001,4.31349996 25.7079991,4.309 25.888,4.309 L26.158,4.309 L26.158,4.192 C26.158,3.92199865 26.0650009,3.71950068 25.879,3.5845 C25.6929991,3.44949933 25.4560014,3.382 25.168,3.382 C24.9399989,3.382 24.727001,3.4224996 24.529,3.5035 C24.330999,3.58450041 24.1600007,3.69399931 24.016,3.832 L23.449,3.265 C23.6890012,3.01899877 23.9694984,2.84200054 24.2905,2.734 C24.6115016,2.62599946 24.9429983,2.572 25.285,2.572 C25.5910015,2.572 25.848999,2.60649966 26.059,2.6755 C26.2690011,2.74450035 26.4429993,2.83299946 26.581,2.941 C26.7190007,3.04900054 26.8254996,3.1734993 26.9005,3.3145 C26.9755004,3.45550071 27.0294998,3.59799928 27.0625,3.742 C27.0955002,3.88600072 27.115,4.02549933 27.121,4.1605 C27.127,4.29550068 27.13,4.41399949 27.13,4.516 L27.13,7 L26.158,7 L26.158,6.406 Z M26.095,5.065 L25.87,5.065 C25.7199993,5.065 25.5520009,5.07099994 25.366,5.083 C25.1799991,5.09500006 25.0045008,5.12349978 24.8395,5.1685 C24.6744992,5.21350023 24.5350006,5.27949957 24.421,5.3665 C24.3069994,5.45350044 24.25,5.57499922 24.25,5.731 C24.25,5.83300051 24.2724998,5.91849966 24.3175,5.9875 C24.3625002,6.05650035 24.4209996,6.11499976 24.493,6.163 C24.5650004,6.21100024 24.6459996,6.2454999 24.736,6.2665 C24.8260005,6.28750011 24.9159996,6.298 25.006,6.298 C25.3780019,6.298 25.6524991,6.20950089 25.8295,6.0325 C26.0065009,5.85549912 26.095,5.61400153 26.095,5.308 L26.095,5.065 Z M27.787,3.598 L27.787,2.68 L28.678,2.68 L28.678,1.429 L29.758,1.429 L29.758,2.68 L30.946,2.68 L30.946,3.598 L29.758,3.598 L29.758,5.488 C29.758,5.70400108 29.7984996,5.87499937 29.8795,6.001 C29.9605004,6.12700063 30.1209988,6.19 30.361,6.19 C30.4570005,6.19 30.5619994,6.17950011 30.676,6.1585 C30.7900006,6.1374999 30.8799997,6.10300024 30.946,6.055 L30.946,6.964 C30.8319994,7.01800027 30.6925008,7.0554999 30.5275,7.0765 C30.3624992,7.09750011 30.2170006,7.108 30.091,7.108 C29.8029986,7.108 29.5675009,7.07650032 29.3845,7.0135 C29.2014991,6.95049969 29.0575005,6.85450065 28.9525,6.7255 C28.8474995,6.59649936 28.7755002,6.43600096 28.7365,6.244 C28.6974998,6.05199904 28.678,5.83000126 28.678,5.578 L28.678,3.598 L27.787,3.598 Z M31.576,4.84 C31.576,4.49799829 31.6374994,4.1875014 31.7605,3.9085 C31.8835006,3.62949861 32.049999,3.39100099 32.26,3.193 C32.4700011,2.99499901 32.7189986,2.84200054 33.007,2.734 C33.2950014,2.62599946 33.6009984,2.572 33.925,2.572 C34.2490016,2.572 34.5549986,2.62599946 34.843,2.734 C35.1310014,2.84200054 35.379999,2.99499901 35.59,3.193 C35.8000011,3.39100099 35.9664994,3.62949861 36.0895,3.9085 C36.2125006,4.1875014 36.274,4.49799829 36.274,4.84 C36.274,5.18200171 36.2125006,5.49249861 36.0895,5.7715 C35.9664994,6.0505014 35.8000011,6.28899901 35.59,6.487 C35.379999,6.68500099 35.1310014,6.83799946 34.843,6.946 C34.5549986,7.05400054 34.2490016,7.108 33.925,7.108 C33.6009984,7.108 33.2950014,7.05400054 33.007,6.946 C32.7189986,6.83799946 32.4700011,6.68500099 32.26,6.487 C32.049999,6.28899901 31.8835006,6.0505014 31.7605,5.7715 C31.6374994,5.49249861 31.576,5.18200171 31.576,4.84 Z M32.656,4.84 C32.656,5.00800084 32.6844997,5.16999922 32.7415,5.326 C32.7985003,5.48200078 32.8824994,5.6199994 32.9935,5.74 C33.1045006,5.8600006 33.2379992,5.95599964 33.394,6.028 C33.5500008,6.10000036 33.726999,6.136 33.925,6.136 C34.123001,6.136 34.2999992,6.10000036 34.456,6.028 C34.6120008,5.95599964 34.7454994,5.8600006 34.8565,5.74 C34.9675006,5.6199994 35.0514997,5.48200078 35.1085,5.326 C35.1655003,5.16999922 35.194,5.00800084 35.194,4.84 C35.194,4.67199916 35.1655003,4.51000078 35.1085,4.354 C35.0514997,4.19799922 34.9675006,4.0600006 34.8565,3.94 C34.7454994,3.8199994 34.6120008,3.72400036 34.456,3.652 C34.2999992,3.57999964 34.123001,3.544 33.925,3.544 C33.726999,3.544 33.5500008,3.57999964 33.394,3.652 C33.2379992,3.72400036 33.1045006,3.8199994 32.9935,3.94 C32.8824994,4.0600006 32.7985003,4.19799922 32.7415,4.354 C32.6844997,4.51000078 32.656,4.67199916 32.656,4.84 Z M37.282,2.68 L38.362,2.68 L38.362,3.364 L38.38,3.364 C38.5000006,3.11199874 38.6709989,2.91700069 38.893,2.779 C39.1150011,2.64099931 39.3699986,2.572 39.658,2.572 C39.7240003,2.572 39.7884997,2.57799994 39.8515,2.59 C39.9145003,2.60200006 39.9789997,2.61699991 40.045,2.635 L40.045,3.679 C39.9549996,3.65499988 39.8665004,3.63550008 39.7795,3.6205 C39.6924996,3.60549993 39.6070004,3.598 39.523,3.598 C39.2709987,3.598 39.0685008,3.64449954 38.9155,3.7375 C38.7624992,3.83050047 38.6455004,3.9369994 38.5645,4.057 C38.4834996,4.1770006 38.4295001,4.2969994 38.4025,4.417 C38.3754999,4.5370006 38.362,4.6269997 38.362,4.687 L38.362,7 L37.282,7 L37.282,2.68 Z"/>
                  <g transform="translate(62.599 2.652)">
                    <rect width="55" height="4" x=".599" y=".54" stroke="#565354" rx="2"/>
                    <use fill="#565354" xlink:href="#design_portfolio-g"/>
                    <rect width="27" height="4" x=".599" y=".54" stroke="#565354" rx="2"/>
                  </g>
                </g>
              </g>
            </g>
          </g>
        </g>
        <g transform="translate(216.86 249.948)">
          <g transform="translate(5.617 .695)">
            <use fill="#FA705A" xlink:href="#design_portfolio-h"/>
            <use fill="#000" filter="url(#design_portfolio-i)" xlink:href="#design_portfolio-h"/>
            <g transform="translate(.215 .166)">
              <use fill="#F6F3EA" xlink:href="#design_portfolio-j"/>
              <use fill="#000" filter="url(#design_portfolio-k)" xlink:href="#design_portfolio-j"/>
            </g>
          </g>
          <use fill="#F6F3EA" xlink:href="#design_portfolio-l"/>
          <use fill="#000" filter="url(#design_portfolio-m)" xlink:href="#design_portfolio-l"/>
        </g>
      </g>
    </g>
  </g>
</svg>
