<svg xmlns="http://www.w3.org/2000/svg" width="1920" height="67" viewBox="0 0 1920 67">
  <g fill="none" fill-rule="evenodd" transform="translate(-5 -.282)">
    <rect width="1927.301" height="66" fill="#565354" transform="translate(.125 .836)"/>
    <g transform="translate(759.5 17)">
      <text fill="#F6F3EA" font-family="Avenir-Book, Avenir" font-size="24">
        <tspan x=".5" y="24.616">Designed and developed by</tspan>
      </text>
      <g transform="translate(331.584 8.287)">
        <polygon fill="#FA705A" points="51.07 .209 63.199 .209 69.231 6.261 57.135 20.277 45.206 6.232"/>
        <polygon fill="#FA705A" points="51.07 .209 63.199 .209 69.231 6.261 57.135 20.277 45.206 6.232"/>
        <path fill="#F6F3EA" d="M3.92492856,20.1016676 L0.059477238,20.1016676 L0.059477238,8.50531361 L3.92492856,8.50531361 L3.92492856,20.1016676 Z M3.92492856,5.62974774 L0.059477238,5.62974774 L0.059477238,0.0463180442 L3.92492856,0.0463180442 L3.92492856,5.62974774 Z M17.5285392,11.784142 L11.2420625,11.784142 L11.2420625,20.2325639 L7.39490611,20.2325639 L7.39490611,0.0463180442 L21.138733,0.0463180442 L21.138733,20.2325639 L17.5285392,20.2325639 L17.5285392,11.784142 Z M10.6623007,3.50873553 L10.6623007,8.50531361 L17.0373052,8.50531361 L17.0373052,3.50873553 L10.6623007,3.50873553 Z M28.4561398,20.2578282 L24.6089833,20.2578282 L24.6089833,0.0715824319 L28.4561398,0.0715824319 L34.7426164,11.3876882 L34.7426164,0.0715824319 L38.3528103,0.0715824319 L38.3528103,20.2578282 L34.7426164,20.2578282 L28.4561398,8.60434789 L28.4561398,20.2578282 Z" transform="translate(.132 .102)"/>
      </g>
    </g>
  </g>
</svg>
