<svg xmlns="http://www.w3.org/2000/svg" width="299" height="287" viewBox="0 0 299 287">
  <g fill="none" fill-rule="evenodd">
    <rect width="596" height="1491" x="-1" fill="#F6F3EA"/>
    <g transform="translate(-194 -202)">
      <circle cx="236.968" cy="240.632" r="236.642" fill="#A5A39E"/>
      <circle cx="220.663" cy="218.327" r="217.337" fill="#7D7B78"/>
      <circle cx="126.117" cy="125.813" r="125.336" fill="#565354" transform="translate(127.86 128.948)"/>
    </g>
    <path fill="#FA705A" d="M46.5832743,65 L46.5832743,89.4741022 L29.7786331,89.4741022 L29.7786331,65 L46.5832743,65 Z M42.1690734,69.1926387 L34.4825692,69.1926387 L34.4825692,85.2814635 L42.1690734,85.2814635 L42.1690734,69.1926387 Z M56.3490546,69.1926387 L49.9919237,69.1926387 L49.9919237,65 L66.7965648,65 L66.7965648,69.1926387 L61.0529907,69.1926387 L61.0529907,89.4741022 L56.3490546,89.4741022 L56.3490546,69.1926387 Z M74.9091502,89.4741022 L70.2052142,89.4741022 L70.2052142,65 L74.9091502,65 L74.9091502,75.2429912 L82.5956545,75.2429912 L82.5956545,65 L87.0098554,65 L87.0098554,89.4741022 L82.5956545,89.4741022 L82.5956545,79.2311109 L74.9091502,79.2311109 L74.9091502,89.4741022 Z M95.1224407,69.1926387 L95.1224407,75.2429912 L107.223146,75.2429912 L107.223146,79.2311109 L95.1224407,79.2311109 L95.1224407,85.2814635 L107.223146,85.2814635 L107.223146,89.4741022 L90.4185047,89.4741022 L90.4185047,65 L107.223146,65 L107.223146,69.1926387 L95.1224407,69.1926387 Z M115.335731,69.1926387 L115.335731,75.2429912 L123.022235,75.2429912 L123.022235,69.1926387 L115.335731,69.1926387 Z M110.631795,89.4741022 L110.631795,65 L127.436436,65 L127.436436,79.2311109 L121.692862,79.2311109 L127.436436,89.4741022 L123.022235,89.4741022 L116.988926,79.2311109 L115.335731,79.2311109 L115.335731,89.4741022 L110.631795,89.4741022 Z M130.845086,79.2311109 L130.845086,65 L147.649727,65 L147.649727,69.1926387 L135.549022,69.1926387 L135.549022,75.2429912 L147.649727,75.2429912 L147.649727,89.4741022 L130.845086,89.4741022 L130.845086,85.2814635 L143.235526,85.2814635 L143.235526,79.2311109 L130.845086,79.2311109 Z"/>
  </g>
</svg>
